<svg xmlns="http://www.w3.org/2000/svg" width="72" height="72" viewBox="0 0 72 72" fill="none">
  <rect width="72" height="72" rx="14" fill="#0A1E30"/>
  <g transform="translate(18, 16) scale(1.5)">
    <path stroke="#2EA3F2" stroke-width="1.5" stroke-linecap="round" stroke-linejoin="round" d="M3.75 3v11.25A2.25 2.25 0 006 16.5h2.25M3.75 3h-1.5m1.5 0h16.5m0 0h1.5m-1.5 0v11.25A2.25 2.25 0 0118 16.5h-2.25m-7.5 0h7.5m-7.5 0l-1 3m8.5-3l1 3m0 0l.5 1.5m-.5-1.5h-9.5m0 0l-.5 1.5M9 11.25v1.5M12 9v3.75m3-6v6"/>
  </g>
</svg>
