<svg xmlns="http://www.w3.org/2000/svg" viewBox="0 0 64 64"><path fill="#fff" d="M14.18 8.68q-.45-.12-.84.12c-.04.03-.1 0-.09-.06.06-.86.26-1.76.66-2.48.53-.94 1.3-1.66 2.32-2.17a3.6 3.6 0 0 1 1.73-.4c1.33.04 2.41 1.26 3.07 2.37.86 1.45 1.44 3.09 1.73 4.91.11.67.16 1.3-.08 1.94-.74 1.95-2.41 3.43-4.48 3.65-.54.06-1.03 0-1.46-.17-.5-.2-.45-.58-.34-1.02.09-.33.23-.63.44-.9.13-.17.11-.19-.07-.07-.45.3-.77.76-.98 1.38q-.015.06-.06 0c-.1-.15-.25-.35-.45-.62q-.285-.375-.39-.66c-.34-.87-.17-1.61.16-2.47.04-.1.02-.11-.04-.03-.3.37-.48.77-.55 1.2-.02.15-.04.27-.06.33 0 .04-.02.04-.04 0-.28-.57-.51-1.15-.7-1.73-.25-.76-.38-1.48-.41-2.18-.02-.5.46-.79.92-.92q.06-.015 0-.03ZM22.94 6.25c-.64-.68-1.14-1.4-1.52-2.18-.38-.79-.44-1.64.24-2.27.6-.54 1.26-.92 2-1.13.5-.14.92-.17 1.27-.1.46.1.85.34 1.15.72.39.49.63 1.04.73 1.65.18 1.15-.16 2.12-1.01 2.89-.64.58-1.41.86-2.32.84-.14 0-.39.03-.57.06-.12.02-.14-.02-.06-.11.07-.08.11-.17.12-.29 0-.03 0-.06-.03-.09ZM29.17 7.89s.03-.06 0-.08c-.26-.35-.43-.6-.52-.74-.84-1.42-1-2.9-.48-4.43q.135-.39.48-.75c.36-.39.84-.49 1.34-.35.27.07.51.17.7.28.94.56 1.78 1.61 2.04 2.7.44 1.9-.89 3.92-2.9 3.97-.4 0-.82-.04-1.24-.16-.11-.03-.11-.06 0-.1q.33-.135.57-.33Z"/><path fill="#fff" d="M38.9 26.9c.17.07.25.11.26.11.45.18.91.14 1.37-.1.83-.44 1.26-1.57 1.41-2.49.12-.74.19-1.51.11-2.25 0-.08-.09-.14-.17-.11-.44.16-.51.46-.69.84-.02.05-.03.05-.04 0-.02-.47.12-.9.41-1.27.06-.08.17-.12.25-.17.05-.03.05-.09.02-.13-.4-.41-.94-.52-1.45-.24-.22.12-.42.27-.58.44-.11.12-.13.11-.05-.04.44-.8 1.37-1.44 2.27-.86.02.01.04 0 .04-.02 0-.42-.02-.78-.04-1.09-.03-.45-.11-.81-.22-1.06-.17-.38-.39-.71-.67-.99-.47-.48-1.05-.69-1.73-.63-.06 0-.06 0 0-.03.63-.26 1.25-.22 1.87.13.18.1.35.31.52.64 0 .01.01.01.03.01 0 0 .01 0 .02-.01v-.03q-.09-.585-.21-1.17c-.04-.2-.12-.34-.26-.42-.15-.09-.22-.14-.23-.14-.45-.33-.72-.52-.82-.56-.72-.3-1.18-.39-1.55-.83-.12-.14-.09-.17.07-.1.32.15.59.24.95.29.43.07.76.14 1.09.4.13.1.15.08.08-.07-.28-.56-.68-.98-1.18-1.28-.12-.07-.11-.1.03-.08.4.05.77.14 1.12.27.16.06.19.02.1-.12-.04-.06-.11-.16-.21-.29-.11-.14-.07-.19.1-.17.21.03.3-.13.34-.32.25-1.02.44-1.83.43-2.85-.01-1.04-.43-2.13-1.36-2.65-.55-.3-1.04-.22-1.49.26-.66.7-1.08 1.59-1.27 2.67-.01.08 0 .15.03.22q.345.675.45 1.29c.03.17 0 .34-.07.5-.04.09-.12.15-.18.24-.02.03-.02.06-.01.09.11.41.27.66.14 1.05-.05.15-.14.25-.28.31-.19.08-.44.03-.71 0-.17-.01-.28-.01-.35 0-.67.13-1.08.51-1.24 1.12q-.09.345-.12 0c-.03-.35-.02-.81.22-1.1.05-.06.04-.08-.04-.07-.38.06-.69.25-.9.57a.3.3 0 0 0-.04.08c0 .02-.02.05-.03.07-.03.04-.04.04-.04-.01.02-.25.1-.48.24-.7.19-.29.65-.45.98-.54.08-.02.09-.06.01-.1l-.25-.14s-.04-.05-.02-.08c.05-.09.12-.27.2-.52.28-.85.44-1.33.47-1.41.04-.12 0-.15-.1-.09l-.41.23c-.07.04-.16.03-.22-.02-.14-.12-.29-.22-.43-.3q-.255-.15-.33.12c-.04.13-.12.43-.25.91-.07.25.3.43.49.51.03.01.02.05 0 .05-.28.03-.5.08-.66.14-.03.01-.04.03-.03.07.09.17.19.32.3.43.01.01.02.02.02.03 0 .02-.02.04-.06.04h-.03c-.17-.08-.41-.23-.72-.43-.63-.42-1.46-.72-2.07-.08-.17.18-.24.38-.2.62h-.02s-.04.02-.04 0c-.03-.16-.11-.5-.05-.66.09-.23.28-.46.42-.6.11-.1.09-.13-.05-.07-.11.05-.2.09-.26.14-.17.12-.2.1-.08-.08s.3-.32.54-.44c.03-.01.03-.03.01-.06q-.315-.36-.36-.93c-.05-.57-.06-1.11-.04-1.63 0-.12-.03-.13-.1-.04-.1.13-.51.44-.72.33-.2-.11-.34-.17-.4-.2-.26-.1-.42-.02-.49.26q-.12.48-.15.84-.03.33.24.42c.15.05.3.09.44.12.03 0 .03.05 0 .06q-.315.135-.57.27c-.12.07-.13.14-.12.28 0 .29.05.57.13.82.02.08 0 .1-.07.05-.25-.15-.67-.44-1-.6-.31-.15-.56-.29-.87-.52-.23-.18-.41-.31-.55-.38-.09-.05-.08-.08.02-.09.21-.02.43 0 .67.07.13.04.16 0 .08-.11-.21-.29-.47-.75-.78-1.37-.42-.82-.54-1.81-1.14-2.53-.02-.02-.06-.02-.07.02-.09.41-.23.9-.68 1.03-.07.02-.13.03-.17.03l-.95-.06c-.05 0-.08.04-.08.08.09.52.27.94.78 1.16.43.19.66.29.68.3.05.02.05.04 0 .05-.23.04-.45.1-.67.19-.06.02-.09.09-.07.15q.15.57.24 1.05c.01.07 0 .22-.02.46 0 .04 0 .04.04.02.24-.18.46-.29.66-.35.21-.06.23-.02.08.13-.2.19-.42.47-.66.83-.06.1-.04.11.06.05q.03-.015.33-.21c.94-.61 1.8-.38 2.55.37.04.04.05.06.05.07 0 .04-.03.07-.06.06-.24-.12-.45-.22-.63-.29-.7-.26-1.33-.12-1.89.43-.11.11-.1.13.05.07.65-.3 1.22-.15 1.69.45.08.11.07.12-.05.06-.26-.14-.53-.22-.86-.18-.89.12-1.55.54-2 1.27-.57.92-1.1 1.72-1.59 2.39-.02.03-.01.04.02.03.27-.09.63-.19 1.06-.3a.9.9 0 0 0 .25-.1c.16-.1.18-.08.05.07-.4.45-.82.74-1.28.85-.28.07-.27.13 0 .17 1.62.23 3.12.65 4.51 1.5.62.38 1.15.88 1.57 1.48.37.53.73 1.11 1.07 1.73.38.68.65 1.39.83 2.12v.02l-.02.02c-.25-.68-.64-1.27-1.17-1.79-.01-.01-.04 0-.04.02-.05 1.13-.27 2.23-.67 3.28a6.16 6.16 0 0 1-1.85 2.61c-.12.1-.29.2-.48.29-.03.01-.04 0-.01-.01q.48-.45.63-.66c.56-.81.48-1.54-.25-2.21-.12-.11-.25-.18-.37-.26-.04-.03-.04-.05.02-.05.5-.01 1.13.23 1.29.77q.045.135.09 0c.07-.22.13-.45.18-.7.07-.34.11-.58.11-.72.06-.92-.67-1.76-1.56-1.93-.1-.02-.1-.04 0-.07.61-.17 1.25-.08 1.65.45.04.05.05.04.05-.02-.08-.96-.42-1.83-1.04-2.61-.33-.42-.67-.73-1.02-.94-.36-.22-.71-.26-1.05-.11-.36.15-.63.4-.8.74-.01.03-.05.02-.05-.01.03-.38.17-.71.41-1.01q.15-.165.39-.24c.04-.01.04-.07 0-.08-.68-.28-1.34-.43-1.99-.45-.54-.02-.96.06-1.27.23-.26.14-.27.12-.06-.07l.29-.26s.02-.04 0-.05a.7.7 0 0 0-.3-.05c-.25 0-.51.05-.76.13-.07.02-.08 0-.04-.06.17-.25.37-.47.62-.67.03-.02.03-.04 0-.07-.02-.02-.06-.02-.1 0-.28.13-.48.25-.61.35-.03.03-.04.02-.03-.02.04-.14.13-.33.28-.57.12-.19.2-.35.22-.48q.045-.27.03-.54c0-.04-.02-.04-.05-.01-.01.01-.08.09-.21.23-.34.38-.92.56-1.42.6-.08 0-.14.03-.17.07-.54.58-1.19.85-1.96.81-.15 0-.27-.05-.39-.09-.19-.07-.24-.05-.14.05.09.09.2.22.35.37.04.04.07.07.11.1s.09.04.14.05c.43.07.84.16 1.23.26.21.06.21.08-.01.08-.76 0-1.42.04-2.07.37-.15.07-.26.19-.34.33-.02.04.01.08.05.07.18-.05.46-.14.66-.11.24.03.45.13.65.29.08.07.07.09-.03.05-.51-.16-1.13.26-1.46.64-.36.41-.55.86-.59 1.33q-.06.705-.03 1.17c0 .05.02.06.05.01q.36-.51.93-.81h.04c.01 0 .02.01.02.02 0 .03 0 .05-.02.06-.3.27-.43.59-.41.98.01.23.11.36.28.39.03 0 .04.02 0 .05-.01.01-.11.1-.29.25-.62.54-.46 1.48-.28 2.2q.045.165.27 1.08c.04.13.06.13.08 0a3.6 3.6 0 0 1 .56-1.47c.26-.39.59-.79.99-1.05.09-.05.1-.04.04.04-1.17 1.72-1.22 3.9-.1 5.67.23.37.5.65.79.85.33.23.67.23 1.04.13.14-.04.17 0 .08.11-.1.13-.25.26-.45.4-.03.02-.03.06 0 .08.27.21.55.37.84.49.64.25 1.37-.04 1.85-.51.02 0 .03 0 .03.03v.02c-.54.88-1.28 1.19-2.21.93-.22-.06-.46-.19-.7-.32-.13-.07-.15-.05-.05.06.62.7 1.39 1.27 2.36 1.34.05 0 .05.02 0 .04-.06.03-.16.04-.32.04-.58-.02-1.07-.19-1.46-.51-.09-.07-.11-.06-.05.05q.195.375.54.84c.37.52.84.81 1.45.59.04-.01.06 0 .04.04q-.105.345-.36.51c-.09.06-.26.12-.53.18-.04 0-.04.03-.03.06l.35.65s.04.04.06.03a4.2 4.2 0 0 0 2.19-.8h.02v.03c-.6.62-1.28 1.11-2.04 1.46-.04.02-.05.04-.04.08l.17.97s.02.04.05.02c.35-.24.54-.36.55-.38.2-.14.44-.26.73-.35.19-.06.2-.03.03.07-.21.13-.43.32-.68.55-.38.35-.56.78-.56 1.28 0 .09.1.15.18.11l.19-.1c.09-.05.11-.02.08.07-.12.32-.09.64.08.95.02.04.06.07.11.08l.18.03s.05.03.02.05c-.35.33-.5.73-.44 1.21.02.15.05.51.11 1.07 0 .04.04.08.09.07.22-.03.41-.04.59-.05.22 0 .23.03.04.11-.22.09-.32.29-.31.59 0 .11.11.18.21.14.56-.21 1.12-.27 1.67-.2.12.02.12.03 0 .05-.8.1-1.55.41-2.26.92-.01.01-.02.03-.02.04l.06.72s0 .01.01 0c.3-.16.62-.22.95-.19.04 0 .07.02.09.04.02.03.02.05-.02.05-.1.02-.19.06-.29.13-.38.26-.6.4-.65.44-.07.05-.12.13-.13.22l-.11 1.26c0 .11.01.11.06.02.1-.19.24-.38.41-.58.12-.14.22-.24.29-.28.23-.13.25-.09.07.1-.2.21-.35.46-.44.77-.08.27-.04.51.11.72.03.04.02.07-.03.08-.27.06-.44.22-.51.45-.05.19-.08.31-.08.38q-.045.72-.09 1.2-.015.195.09.03c.05-.08.13-.15.22-.22.1-.07.13-.05.09.07-.14.38-.07.72.24 1.02.02.02.02.03-.01.03-.53.03-.63.45-.62.91.02.73.08 1.41.2 2.05.04.22.1.23.18.01.05-.15.19-.31.41-.48.02-.02.06 0 .05.03-.07.18-.13.41-.17.69-.04.31.03.54.21.71.09.08.08.13-.05.12-.27 0-.39.07-.37.23.04.3.17.7.28.91.1.18.33.22.69.1.06-.02.07 0 .04.05-.15.23-.4.75-.27 1.02.17.37.39.75.66 1.13.22.32.66.71 1.07.46.43-.26.71-.42.85-.49q.045-.015.03.03c-.02.04-.1.17-.24.38-.16.25-.51.9-.34 1.21.32.59.77 1.05 1.35 1.39.1.06.13.03.1-.08-.1-.3-.11-.65-.03-1.04q.015-.105.06 0c.07.17.13.33.2.45.25.47.62.72 1.1.75.03 0 .04.01 0 .03-.09.06-.16.13-.21.19-.09.13-.06.22.08.27.41.16.85.27 1.34.33.04 0 .08-.01.1-.05l.7-1.28c.03-.05.05-.05.06.01 0 .04 0 .15-.04.31-.06.3-.01.6.14.91.11.23.3.36.56.4.83.1 1.64.1 2.42-.02.16-.02.17-.07.02-.14-.23-.11-.44-.31-.62-.6-.08-.13-.05-.16.08-.08.23.13.47.24.69.33.21.08.44.06.7-.05.07-.03.11 0 .12.06 0 .05.03.1.06.14.02.03.05.04.08.04.39-.06.75-.19 1.06-.38.22-.13.08-.65.02-.85-.01-.04.03-.09.07-.07.48.14 1.12.21 1.5-.09.36-.29.67-.65.93-1.1q.075-.12-.06-.06c-.18.09-.31.16-.39.22-.17.12-.34.14-.49.08-.16-.07-.31-.13-.42-.22-.04-.03-.04-.05.02-.04a.9.9 0 0 0 .65-.16c.12-.09.25-.15.35-.23q.045-.03 0-.06c-.31-.2-.52-.47-.64-.79-.05-.13-.03-.14.06-.04.35.4.95.51 1.36.21.39-.28.69-1 .89-1.54.03-.08 0-.1-.06-.06q-.57.33-1.14.03c-.1-.05-.09-.08.02-.09.26-.02.57-.08.75-.26.02-.02.01-.06-.01-.07-.7-.27-1.06-.78-1.1-1.55 0-.1.01-.1.05 0q.24.63.93.87c.41.14.88.05 1.01-.39.17-.6.26-1.25.29-1.95.01-.38-.21-.71-.63-.55a.9.9 0 0 0-.55.59c-.06.17-.08.17-.06-.01.04-.38.17-.7.38-.95.07-.08.04-.2-.05-.24a.76.76 0 0 0-.38-.09c-.03 0-.06-.04-.04-.07.3-.43.86-.52 1.29-.22.02.02.05 0 .05-.03 0-.74-.06-1.41-.14-1.99-.03-.18-.12-.31-.27-.36-.16-.06-.33-.02-.55 0-.11.01-.12-.02-.05-.09.08-.08.17-.16.26-.23.03-.03.05-.05.04-.06-.03-.09-.13-.14-.23-.11-.22.06-.37.14-.46.25-.25.3-.48.57-.68.8a.94.94 0 0 1-.34.25h-.07s-.02-.01-.02-.02c-.02-.02-.02-.04 0-.07q.255-.315.3-.39c.28-.53.56-1.03.99-1.35.26-.2.71-.05.96.11.02.01.04 0 .04-.02l-.15-1.7c0-.1-.11-.17-.21-.14-.43.13-.47.38-.56.78-.02.1-.04.1-.05 0-.05-.46.02-.91.2-1.35.06-.14.16-.23.3-.25.1-.02.11-.05.02-.11-.25-.15-.53-.18-.84-.08-.32.1-.52.3-.61.6 0 .01 0 .01-.02 0l-.03-.05c.06-.26.13-.46.21-.61.17-.31.42-.49.75-.55.14-.02.14-.06.01-.11-.66-.25-1.32.11-1.78.62-.35.39-.59.64-.71.76-.21.21-.25.19-.1-.07.39-.69.78-1.39 1.47-1.78.23-.13.43-.18.6-.17.38.03.75.11 1.12.25.04.02.08-.01.08-.06 0-.64-.38-1.04-1.03-.72-.14.07-.17.05-.07-.08.11-.15.27-.26.46-.34.2-.08.34.02.5.15.04.03.07.04.11.02.03-.02.04-.04.03-.07-.14-.33-.38-.54-.7-.62-.04-.01-.05-.03 0-.04.22-.08.43-.1.64-.05.04 0 .07-.02.07-.06 0-.08-.02-.25-.04-.5-.02-.22-.06-.38-.12-.47-.12-.17-.3-.21-.55-.13-.23.08-.41.18-.55.33-.08.09-.1.08-.06-.04.1-.27.26-.49.47-.65q.105-.09 0-.18c-.26-.22-.54-.35-.86-.37-1.14-.09-2.01.35-2.62 1.33-.05.08-.07.12-.08.13-.1.19-.13.18-.07-.03.34-1.25 1.6-1.92 2.82-1.9q.42 0 1.17.21c.28.08.49.16.63.26.03.02.05.02.08 0s.04-.06.03-.1v-.09l.29-1.78c.02-.09 0-.1-.07-.03-.44.5-.98.69-1.61.58q-.195-.03 0-.06c.5-.06.99-.41.95-.96-.01-.14-.07-.23-.17-.26-.42-.13-.8-.06-1.15.23-.06.05-.08.04-.04-.03.28-.53 1.05-.88 1.6-.93.15-.01.29.02.43.09.08.04.12.01.13-.07.11-.84.25-1.64.41-2.4.04-.2.06-.34.03-.42a.41.41 0 0 0-.37-.29c-.25-.03-.47.09-.64.36-.06.08-.1.19-.14.32h-.03s-.01-.01-.01-.02c.09-.75.49-1.21 1.19-1.37.03 0 .03-.02.02-.04-.64-.82-1.4-1.3-2.28-1.43-.2-.03-.2-.05 0-.07.76-.08 1.49.11 2.19.56.04.03.09 0 .09-.05-.01-.2-.02-.31-.02-.33.04-.28.06-.53.04-.75-.01-.17-.08-.2-.21-.11l-.18.13s-.05.02-.07-.02c-.02-.05-.05-.15-.08-.3-.07-.34-.44-.55-.76-.59-.1-.01-.1-.04 0-.08.4-.16.79-.17 1.18-.05.08.02.16-.03.17-.11l.22-1.35s-.01-.03-.03-.02c-.14.07-.28.18-.46.17-.37-.04-.68-.21-1.01-.41-.1-.06-.09-.08.02-.06.3.05.59.08.86 0 .27-.09.51-.27.73-.55q.09-.12-.06-.09c-.2.05-.36.08-.47.08-.13 0-.14-.03-.05-.11.3-.26.54-.49.66-.88.02-.07 0-.08-.06-.04-.34.24-.71.42-1.1.34-.39-.09-.73-.27-1.01-.54-.11-.1-.09-.13.05-.07Zm-5.28 3.68c.61-.48 1.24-1.03 1.91-1.66.55-.52 1.01-1.07 1.37-1.64.15-.23.19-.22.11.05a8.3 8.3 0 0 1-1.99 3.44c-.46.48-.95.92-1.46 1.32-1.44 1.11-2.32 1.79-2.64 2.03-.5.38-.81.66-.94.83-.07.09-.11.14-.13.16-.04.03-.05.02-.04-.02.06-.22.11-.38.17-.49a9.4 9.4 0 0 1 2.36-2.99c.36-.3.78-.65 1.27-1.03Zm-1.24 10.81c-1.15.44-2.42.73-3.46 1.09-.14.05-.15.02-.04-.07.8-.67 1.67-1.13 2.66-1.44.68-.22 1.41-.43 2-.7.46-.22.81-.41 1.05-.58.04-.03.06-.04.07-.05.07-.02.08 0 .04.04q-.9 1.17-2.31 1.71Zm2.21 4.47c-1.02 1.27-2.75 1.37-4.29 1.37-.47 0-.82.03-1.05.08-.85.2-1.68.66-2.34 1.17-.03.02-.06 0-.06-.03q0-.045.03-.09.72-.93 1.83-1.56.645-.36 1.23-.42c.63-.06 1.53.18 2.16.18.74 0 1.45-.17 2.07-.54.17-.1.3-.17.37-.21.1-.05.11-.04.04.05Zm-6.45-7.11c-.65.11-1.28.11-1.91 0q-.15-.03 0-.06c.4-.09.78-.18 1.14-.26 1.68-.42 3.15-1.25 4.41-2.5.74-.73 1.42-1.38 2.02-1.95.21-.2.44-.37.66-.55a.8.8 0 0 1 .22-.13c.03-.01.03 0 .01.02-.86.85-1.52 1.91-2.21 2.8q-1.65 2.145-4.35 2.61Zm-2.48-5.63c1.35-.75 2.46-1.83 3.42-3.04.13-.16.45-.55.98-1.17.82-.97 1.85-1.42 3.11-1.36.08 0 .09.03.02.07-1.35.75-2.46 1.83-3.42 3.04-.13.16-.45.55-.98 1.17-.82.97-1.85 1.42-3.11 1.36-.08 0-.09-.03-.02-.07m-.07 11.45c.62-.52 1.42-.88 2.25-.84.45.02.96.29 1.35.39q.885.225 1.74-.12c.02 0 .03 0 .04.01v.03c-.21.17-.4.27-.54.32-.51.16-1.02.2-1.55.12-.36-.05-.78-.13-1.24-.22-.18-.04-.41-.04-.68 0-.36.04-.78.17-1.28.38-.02.01-.05 0-.07 0l-.02-.02v-.03Zm4.9 8.64c-.44.16-.84.35-1.19.58-.03.02-.06 0-.06-.03 0-.02 0-.04.02-.06.65-.68 1.82-1.47 2.79-1.19.36.1.65.18.87.22q.96.195 1.89-.27c.15-.07.17-.05.05.06-.48.46-1.12.6-1.76.64-.93.06-1.74-.26-2.6.04Zm4.53 1.69-.02.04s-.03.04-.05.06c-.61.4-1.25.34-1.95.2-.22-.04-.39-.06-.49-.06-.34 0-.66.12-1 .26-.23.1-.26.06-.07-.11.16-.14.36-.28.6-.4.4-.2.79-.24 1.18-.11.35.11.59.18.74.22.31.07.65.03 1.04-.13.02 0 .04.01.03.03Zm-.07-5.45q.195-.15.06.06c-.26.38-.6.67-1.03.88-.58.29-1.23.46-1.95.52-.66.06-1.2.1-1.6.13-.77.05-1.67.76-2.21 1.05-1.18.64-2.34.62-3.46-.06a.2.2 0 0 1-.06-.06c-.02-.04 0-.05.03-.04.21.06.34.1.39.11.19.04.46.05.81.05.68 0 1.3-.2 1.86-.61.23-.16.65-.48 1.29-.96.29-.22.67-.37 1.11-.46.22-.04.59-.02 1.12.05 1.33.18 2.52.2 3.64-.66m2.77-16.44c-.22.94-.65 1.83-1.32 2.66-.58.73-1.19 1.34-1.83 1.84-.8.63-1.64.99-2.62 1.09q-.195.015-.03-.09c.34-.22.67-.47 1.01-.76 1.01-.87 1.69-1.47 2.05-1.78.97-.85 1.79-1.74 2.46-2.66.09-.12.13-.24.21-.34q.105-.12.06.03Z"/><path fill="#fff" d="M36.36 10.2c-.56-.02-1.2-.11-1.92-.26q-.435-.09-.63-.18a.09.09 0 0 1-.06-.06c-.09-.2-.28-.57-.55-1.13-.51-1.03-.19-2.66.27-3.66.54-1.2 1.53-1.08 2.42-.41.32.24.62.54.89.9.79 1.03.94 2.16.46 3.37-.16.41-.4.86-.7 1.33-.05.08-.1.11-.17.11ZM50.75 63.45h-.02.02"/></svg>