<svg xmlns="http://www.w3.org/2000/svg" viewBox="0 0 2119.63 2436.7"><path fill="#28292a" d="M1992 1901.35c-.07.11.13.32.4.46.27.15.53.14.61.03s-.13-.32-.4-.46c-.27-.15-.53-.14-.61-.03M1281.16 138.94c-6.55-11.28-15.99-18.42-28.34-21.37-2.03-.48-2.65-3.04-1.07-4.41 27.24-23.93 59.82-44.65 93.22-54.03 43.35-12.15 87.68-10.66 132.97 4.46 25.13 8.4 46.22 21.57 63.2 39.58 38.4 40.66 34.31 108.82 20.97 161.36-17.47 68.71-48.96 134.35-94.48 196.92-16.63 22.9-33.8 43.56-60.06 55.3-79.89 35.79-173.05 30.31-241.37-24.67-17.79-14.32-30.48-30.47-38.11-48.37-8.86-20.81 3.88-30.56 20.35-40.28 12.38-7.3 25.61-11.81 39.64-13.54 8.8-1.11 8.86-2.46.17-4.08-22.24-4.21-45.57-.23-69.89 11.88-1.62.81-2.23.34-1.87-1.43 1.46-7.2 3.19-17.83 5.15-31.89 1.85-13.01 4.47-23.41 7.82-31.18 15.71-36.15 42.6-52.84 78.13-68.72 4.09-1.83 3.91-2.51-.52-2.03-19.95 2.14-37.21 8.59-51.77 19.29-5.27 3.86-9.13 6.6-11.58 8.25-1.51 1.01-1.94.64-1.35-1.07 8.74-25.15 18.88-49.23 30.48-72.2 15.04-29.8 32.54-55.36 52.48-76.78 14.19-15.24 37.21-9.71 54.84.05 1.61.89 1.93.53 1.02-1.03ZM1613.11 326.69c1.2-38.98 7.69-75.57 19.45-109.76 11.99-34.7 35.57-61.93 74.36-60.08 33.81 1.63 64.72 10.24 92.72 25.83 18.87 10.51 32.41 22.11 40.68 34.78 10.87 16.69 15.16 35.15 12.89 55.38-2.88 25.93-12.06 49.45-27.49 70.58-28.92 39.62-67.51 58.23-115.74 55.83-36.02-1.78-67.18-16.43-93.55-43.89-4.15-4.31-12.53-10.8-18.68-15.38-4.17-3.11-3.67-4.8 1.5-5.06 4.37-.25 8.4-1.89 12.15-4.83 1.1-.89 1.68-2.01 1.72-3.41ZM1749.49 560.35c1.31.09 2.49-.81 2.67-2.13 2.67-18.02 4.9-30.5 6.67-37.45 17.09-67.15 56.24-115.67 117.39-145.66q15.315-7.545 36.48-8.22c22.38-.76 39.49 10.61 50.37 29.39 5.87 10.17 10.03 19.95 12.42 29.33 11.42 44.56 5.24 100.63-19.63 140.53-43.21 69.26-142.62 89.97-203.81 31.75-12.23-11.67-22.91-25.47-32.02-41.48-2.28-4.01-1.29-5.09 2.92-3.22 9.15 4.04 18 6.41 26.54 7.15Z"/><path fill="#28292a" d="M1061.87 1093.11c8.47 3.22 16.13 5.11 22.92 5.7 45.95 4.01 90.15-3.51 132.56-22.61 43.18-19.46 82.32-45.25 117.35-77.47.64-.6 1.68-.17 1.67.7.19 31.05-5.99 60.38-18.54 87.96-.11.22-.01.33.19.35l1.36.07c.37.03.62-.11.83-.42 16.29-26.96 29.02-56.15 38.17-87.61 8.3-28.45 14.81-56.06 19.57-82.85 5.38-30.41 4.53-60.52-2.59-90.42-15.86-66.73-48.21-123.58-89.3-178.55-7.17-9.59-5.61-11.34 4.72-5.23 17.14 10.17 38.28 14.42 63.42 12.78 8.13-.55 8.31-1.71.46-3.53-2.97-.67-6.4-2.19-10.29-4.55-16.28-9.7-29.82-17.22-40.62-22.58-1.27-.63-1.23-1.07.21-1.27 34.42-5.37 73.82-13.31 118.18-23.78 35.03-8.27 67.42-1.02 97.24 21.71 11.07 8.41 16.9 18.86 20.28 30.83 1.52 5.42 2.59 5.35 3.24-.25 3.61-31.76-8.7-52.89-36.92-63.37-6.2-2.3-5.99-3.44.66-3.35 32.97.38 55.92 14.85 68.85 43.46 3.31 7.28 6.68 16.33 10.16 27.12.36 1.03 2.15.93 3.49-.22.33-.28.52-1.47.51-3.56.02-44.59-18.58-76.59-64.66-86.48-9.57-2.04-14.87-3.19-15.87-3.45-4.93-1.25-5.02-2.36-.23-3.32 17.85-3.52 32.59-5.12 44.25-4.88 9.03.21 9.61-1.87 1.68-6.22-7.64-4.22-17.62-7.26-29.95-9.16-1.55-.25-1.71-.84-.54-1.83 7.78-6.41 12.56-10.84 14.22-13.23 7.74-11.06 15.76-23.78 24.12-38.2 1.29-2.25 4.11-3.16 6.51-2.12 9.06 3.93 17.58 8.67 25.49 14.22 2.05 1.4 2.59.98 1.73-1.32-.32-.76-4.01-10.41-11.17-28.92-8.46-21.99-1.45-39.48 11.44-57.64 1.14-1.58 3.46-1.69 4.74-.22 4.09 4.63 12.85 14.65 26.2 29.99 1.03 1.18 2.96 2.55 5.8 4.09 17.26 9.33 36.25-1.11 50.82-10.6 1.14-.75 2.59.14 2.48 1.49-3.52 39.21-29.35 72.2-41.25 109.01-8.95 27.68-14.73 48.91-17.32 63.7-.98 5.55-2.86 5.87-5.64 1-5.19-9.09-11.17-16.37-17.98-21.84-3.27-2.64-4.36-1.92-3.26 2.12 1.67 6.21 3.29 15.37 4.89 27.56 2.06 15.88 5.5 27.49 10.24 41.2 5.04 14.68 9.08 35.4 12.01 47.48.81 3.33 2.02 3.48 3.62.45 5.09-9.72 11.86-19.06 20.36-28.05 3.91-4.18 6.2-6.13 11.87-4.58 7.7 2.16 16.03 5.04 24.91 8.71 1.19.48 2.33-.81 1.66-1.93-3.25-5.22-6.35-10.81-9.31-16.73-3.51-7.01-1.71-13.52 5.36-19.52 7.52-6.37 17.29-13.15 29.37-20.3 10.14-6.05 17.52-3.78 22.1 6.8 1.09 2.53 3.06 8.41 5.91 17.65 2.92 9.58 24.35 12.72 31.23 11.75 5.01-.73 5.68.68 1.95 4.12-15.97 14.75-31.74 31.23-47.27 49.45-10.42 12.22-16.04 24.99-16.8 38.41-.07 1.36-.75 1.82-1.99 1.37-10.53-3.74-20.2-4.77-28.96-3.07-8.63 1.66-8.62 3.2.09 4.62 3.31.52 7.24 1.77 11.84 3.67 5.71 2.4 5.5 3.55-.69 3.47-8.15-.08-20.84 1.34-30.11 5.47-6.73 3.01-14.56 15.63-18.24 21.17-.6.91-.4 1.51.63 1.81l1.07.32c.12.03.25 0 .34-.15 5.82-7.95 13.87-12.04 24.24-12.26 37.03-.8 53.08 32.62 59.04 63.79 2.9 15.13 5.68 26.46 8.4 34.03.14.38.34.68.64.94 1.28 1.17 2.25 1.42 2.88.69.18-.2.27-.63.25-1.26.09-6.77 1.39-13.98 3.92-21.7.47-1.45 1.38-1.84 2.74-1.23 6.54 2.98 14.4 8.14 23.61 15.5.91.73 2.19-.23 1.75-1.27-3.19-7.83-8.89-24.08.63-29.6 18.07-10.46 29.57-17.02 34.49-19.7 6.81-3.7 11.26-1.55 13.28 6.44 1.68 6.71 2.93 13.92 3.71 21.71a8.55 8.55 0 0 0 6.06 7.3l18.98 5.62c5.1 1.51 5.21 3.38.42 5.63-3.55 1.7-22.18 11.08-55.8 28.11-10.05 5.07-17.17 8.26-21.41 9.6-1.57.5-2.12 1.54-1.67 3.09l3.38 11.68c1 3.51-.09 4.39-3.3 2.57-12.4-7.01-30.61-15.82-45-12.99-10.9 2.15-20.24 6.65-28.03 13.52-1.65 1.47-1.39 2.01.79 1.57 1.07-.23 2.07-.64 2.95-1.21 1.09-.72 2.26-1.16 3.55-1.41 16.07-3.13 30.7.16 43.79 9.92 2.49 1.86 2.19 2.9-.92 3.11-15.81 1.12-29.84 14.69-39.18 25.94-6.37 7.71-5.29 8.99 3.29 3.81 22.82-13.81 46.18-12.69 70.05 3.35 2.25 1.54 5.7 4.98 10.32 10.36 7.3 8.59 13.18 17.75 21.11 20.85 5.86 2.32 11.71 2.01 17.56-.97 15.43-7.86 18.14-19.83 27.14-35.43.68-1.17 1.64-1.89 2.95-2.21 4.26-.99 8.58-.38 12.37-1.76 7.07-2.62 12.74-6.82 17-12.61 10.35-14.25 18.67-31.48 24.94-51.68.95-3.06 2.82-5.59 5.62-7.56 37.51-26.52 76.42-40.4 116.8-41.67 27.28-.85 44.5 11.3 51.68 36.5 12.26 42.97-7.73 87.65-38.4 118.95-30.01 30.62-59.66 49.04-97.24 71.99-6.93 4.25-14.33 6.69-19.66-.65-4.33-5.95-6.95-5.27-7.85 2.01-.86 7-1.62 11.95-2.2 14.91-1.4 6.97-3.55 7.21-6.47.71-6.29-14.25-14.64-28.03-25.09-41.35-3.61-4.57-4.64-4.04-3.19 1.6 6.21 23.82 5.25 48.19-2.84 73.12-2.11 6.42-3.57 6.28-4.39-.38-2.17-17.33-9.67-29.31-20.54-44.05-9.01-12.26-14.31-22.97-19.41-36.74-2.66-7.21-4.35-7-5 .69-2.04 23.8 8.91 40.06 21.32 70.43 1.78 4.28 4.33 17.93 7.73 40.96.02.21.88 3.81 2.54 10.85 1.52 6.29-.08 12.95-4.8 20.02-9.2 13.88-18.68 27.59-28.48 41.08-.34.44-.75.7-1.15.79s-.72.04-.95-.16c-.38-.28-.52-.65-.38-1.11 4.66-14.89 5.86-26.42 3.6-34.56-7.94-28.84-25.14-48.66-51.51-59.48-2.41-1.01-2.6-.65-.64 1.02 22.07 18.59 32.95 42.01 32.65 70.2-.15 16.43-3.37 32.79-9.64 49.17-4.19 10.9-12.48 23.55-24.98 37.99-8.51 9.87-18.88 21.07-31.15 33.62-.65.64-1.76.31-1.96-.58-9.52-44.08-55.94-52.4-92.83-41.8-6.79 1.95-6.63 2.79.43 2.5 9.93-.44 20.05.89 30.33 3.93 23.65 7.05 36.6 26.02 36.16 50.17-.05 2.28-2.16 3.91-4.37 3.34-3.73-.94-7.94-2.9-12.32-2.35-19.93 2.36-36.59 10.86-50.05 25.48-1.53 1.63-1.23 2.05.87 1.3 16.56-6.19 27.23-12.92 45.23-4.54 3.19 1.49 4.15 5.57 1.95 8.34-19.44 24.36-44.41 45.17-69.97 63.55-31.8 22.87-77.69 43.7-115.5 32.08-21.08-6.45-35.63-19.02-43.71-37.64-.12-.29-1.63-3.94-4.43-10.95-2.33-5.78-3.49-5.54-3.46.69.11 16.39 4.71 31.72 13.77 46.05 9.02 14.19 25.59 19.68 42.52 22.65 2.97.55 3.1 1.5.48 2.9-15.07 7.93-29.3 7.8-45.81 6.5-5.27-.39-5.95 1.2-2.03 4.74 3.38 3.09 8.81 6.87 16.24 11.36 3.72 2.23 3.43 3.64-.87 4.21-14.53 1.87-27.18.08-37.88-5.34-10.56-5.34-18.21-15.15-25.6-25.4-2.81-3.88-3.64-3.5-2.51 1.14 3.86 15.7 8.07 30.09 17.82 42.11 4.65 5.72 12.33 6.7 18.53 8.7.58.17.72.96.18 1.35l-46.65 33.7c-2.76 1.98-6.66 1.07-8.23-1.94-7.89-15.06-20.11-26.19-36.62-33.41-3.96-1.71-4.62-.87-2 2.54 8.26 10.83 13.29 27.96 5.21 40.17-3.4 5.13-5.57 8.82-6.53 11.08-.68 1.59-.19 2.49 1.4 2.75l9.05 1.43c6.62 1.04 7.64 4.22 3.11 9.51-6.05 7.05-13.9 14.11-23.56 21.22-.48.36-3.57 3.74-9.27 10.19-1.32 1.49-3.79.84-4.21-1.12-7.33-33.84-23.45-60.97-48.32-81.39-6.61-5.42-7.36-4.72-2.27 2.17 22.35 30.02 30.81 66.69 25.29 109.99-.14 1.17-.72 1.45-1.74.82-25.63-16.02-50.98-14.22-76.09 5.33-.32.24-.37.68-.16.95l.74.89c.15.21.24.32.29.29 4.86-2.61 9.38-4.35 13.54-5.17 13.17-2.65 23.07.16 29.65 8.49 5.08 6.38 5.88 12.96 2.41 19.74-1.52 3.01-5.98 6.82-13.34 11.53-27.49 17.6-55.33 37.22-83.54 58.95-2.81 2.17-4.81 1.58-6.03-1.74-2.07-5.83-5.16-11.17-10.08-15.25-17.66-14.74-50.94-27.31-74.97-19.99-3.26 1-3.21 1.68.2 2.02 18.82 1.94 32.47 11.08 40.87 27.37 2.11 4 1.18 8.28-2.72 12.84-14.88 17.41-40.15 13.31-56.6.26-4.49-3.58-5.11-3.02-1.84 1.71 15.3 22.01 36.94 32.18 64.97 30.51 3.94-.21 4.34.83 1.11 3.16l-61.29 44.26c-1.06.77-1.99 1.66-2.81 2.71-1.24 1.64-2.6 2.32-4.11 2.04-1.38-.28-2.18-1.1-2.44-2.47-1.3-6.89-4.97-15.61-11.02-26.17-10.76-18.75-20.29-32.33-28.59-40.8-35.8-36.59-93.24-54.35-140.3-27.32-8.03 4.59-7.67 5.61 1.11 3 .23-.06 2.21-.56 6.01-1.43 47.09-11.09 86.15 1.69 117.19 38.29 8.73 10.26 13.57 22.5 14.52 36.76.23 3.86-1.57 5.58-5.38 5.08-11.2-1.48-22.29.32-33.34 5.39-4.6 2.14-4.39 3.12.71 2.96 8.29-.26 16.91 1.92 25.95 6.47 9.91 4.98 14.05 11.71 12.52 20.14-.8 4.39-4.26 10.17-10.42 17.31-6.87 7.98-11.46 13.34-13.73 16.08-1.04 1.28-3.04 1.1-3.88-.27-4.74-7.79-11.55-13.68-20.48-17.75-1.76-.81-2.15-.34-1.18 1.32 6.99 12.04 7.71 25.1 2.16 39.19-.52 1.35-1.5 1.81-2.86 1.36-1.65-.49-2.57-1.76-2.75-3.82-.9-8.53-2.19-15.71-10.57-19.23-8.12-3.45-16.05-4.67-23.76-3.74-6.74.8-6.9 2.3-.43 4.42 28.98 9.63 28.09 32.64 9.26 51.72-1.31 1.32-3.49.93-4.24-.76-6.73-15.3-15.27-28.88-25.64-40.76-4.83-5.52-12.49-9.79-23-12.78-31.78-9.04-64.39.08-96.36 9.01-12.19 3.4-11.94 5.1.73 5.14 7.3 0 21.89-.53 43.74-1.61 28.4-1.39 58.9 7.64 71.02 34.46 2.46 5.36 1.25 6.34-3.52 2.88-11.22-8.04-24.01-10.07-38.43-6.04-6.97 1.98-15.06 5.93-24.29 11.87-.11.09-.18.2-.23.35l-.68 2.3c-.17.58 0 .71.51.4 11.56-6.21 23.52-6.17 35.86.19 12.2 6.28 19.68 15.38 22.46 27.26.99 4.26-.26 5.1-3.78 2.47-4.99-3.73-10.76-3.94-16.59-1.45-18.65 7.91-34.01 19.34-46.08 34.33-2.59 3.24-2.15 3.74 1.35 1.49 14.48-9.19 22.69-15.47 39.58-6.59 3.89 2.07 4.91 7.21 2.08 10.59l-45.99 54.84c-.52.64-1.58.41-1.76-.4-2.97-12.1-11.69-29.83-25.4-31.84-22.12-3.21-45.29 3.19-69.41 10.69-2.08.68-8.86 1.59-20.3 2.75-1.16.12-1.82.8-1.88 1.99-.01.33 0 .71.08 1.15.19 1.06.77 1.77 1.73 2.18 5.68 2.23 11.5 3.15 17.42 2.74 13.07-.89 27.77-2.08 44.06-3.55 5.79-.54 12.8 1.58 21.05 6.4 3.52 2.04 4.95 6.39 3.33 10.04-.25.55-1.25.71-3.07.51-4.87-.61-9.67-.86-14.48-.83-4.48.05-4.98 1.45-1.41 4.21 7.25 5.65 13.52 9.55 16.49 16.15 2.85 6.31 1.94 12.59-2.68 18.9-14.73 20-33.01 41.16-54.92 63.46-.78.81-2.12.41-2.3-.68-3.69-21.49-22.97-35.26-44.77-31.53-1.41.25-1.94 2.05-.89 2.99 4.05 3.66 6.98 8.28 8.76 13.94 1.29 4.09-1.54 8.3-5.78 8.68-13.83 1.2-26.99 6.9-39.49 17.01-6.02 4.85-5.6 5.52 1.31 2.06 11.31-5.66 22.56-6.04 33.78-1.09 17.39 7.61 14.01 23.97 2.41 34.84-21.41 20.03-43.54 36.46-66.42 49.33-16.87 9.48-33.44-2.02-41.45-18.24-9.07-18.25-9.72-36.05-1.99-53.44 1.73-3.87 1.17-4.24-1.67-1.12-21.72 23.9-26.19 50.11-13.44 78.62.51 1.11-.32 2.37-1.54 2.38-10.75-.05-21.59-7.39-29.93-14.58-3.62-3.12-4.76-2.37-3.32 2.19 5.29 16.92 16.88 27.82 34.71 32.68 3.36.91 3.46 2.11.25 3.54-22.21 9.9-52.39 22.53-72.24 19.24-20.86-3.51-35.55-24.5-34.14-46.86.37-5.61-.64-5.86-2.95-.75-6 13.37-7.5 27.57-4.47 42.69.3 1.38-.26 2.01-1.68 1.88-5.18-.53-11.06-2.52-17.14-3.53-10.08-1.73-18.05-6.51-23.94-14.39-1.38-1.83-1.94-1.62-1.66.68.73 5.85 3.3 12.24 6.03 18.93 2.62 6.37 8.24 10.37 16.84 12.04 3.87.73 9.88 2.42 18.04 5.14 3.76 1.24 3.75 2.4-.1 3.43-20.9 5.62-40.95 7.27-60.21 4.99-20.24-2.37-37.37-23.54-47.37-41.9-.92-1.69-3.37-1.71-4.26.03-4.04 7.73-15.26 27.44-25.83 24.81-15.09-3.72-29.4-10.46-42.99-20.2a3.66 3.66 0 0 1-1.45-3.56c.39-2.3 1.16-4.33 2.33-6.03 1.73-2.45 1.17-4.24-1.64-5.32-11.01-4.22-18.47-10.6-22.38-19.23-4.21-9.3-7.82-19.38-10.91-30.22-1.74-6.1-3.33-6.08-4.83.11q-4.965 21 .69 36.12c2.45 6.52.85 7.68-4.73 3.56-26.79-19.82-50.96-43.58-72.49-71.19-6.77-8.68-8.37-18.08-4.78-28.24 4.81-13.55 12.41-23.86 22.85-30.95 5.94-4 9.39-6.77 10.38-8.27 1.34-2.15.85-2.88-1.48-2.19l-58.73 17.02c-1.69.5-3.51-.12-4.6-1.53-12.71-16.4-22.68-33-30.02-49.77-2.62-5.95-.71-9.43 5.69-10.5 3.2-.51 7.12-.39 11.8.45 1.39.24 1.64-.18.7-1.25-13.32-15.17-16.7-33.48-10.18-54.95 1.71-5.63 4.2-12.06 7.37-19.26 1.15-2.62.56-3.17-1.86-1.59-14.07 9.06-24.04 19.62-29.94 31.64-2.18 4.4-3.88 4.23-5.14-.52-7.29-27.07-6.96-54.12 1.02-81.21 4.26-14.51 33.79-23.66 45.98-26.1 10.37-2.06 16.42-3.48 18.17-4.17 1.37-.55 1.39-1.05 0-1.58-5.93-2.22-19.1-5.78-39.55-10.71-19.32-4.64-20.9-29.3-17.98-45.37 3.51-19.19 8.2-36.83 14.07-52.99 4.34-11.98 27.1-20.09 38.34-22.27 2.62-.52 2.74-1.36.33-2.53-14.14-7.06-19.94-14.79-17.47-23.28 2.85-9.63 10.81-25.25 18.66-35.4 4.21-5.47 10.23-4.1 18 4.16 3.65 3.88 5.33 3.12 5.03-2.18-.58-10.31 4.32-19.37 14.69-27.19 9.49-7.12 17.99-12.28 25.49-15.48 1.19-.48.95-2.22-.33-2.39-11.54-1.46-20.33-.81-26.34 2.04-8.67 4.07-10.33 2.2-4.97-5.6 15.31-22.25 33.57-44.46 54.82-66.66 13.52-14.1 29.12-23.37 45.61-8.64.95.87 1.39.66 1.4-.63-.05-18 7.69-30.47 23.27-37.45 4.77-2.17 4.58-3.65-.59-4.47-4.81-.8-9.18-.84-13-.18-5.27.9-5.86-.36-1.79-3.83 10.09-8.57 22.82-19.57 38.17-32.96 2.14-1.87 6.72-4.81 13.78-8.77 9.03-5.13 18.55-4.6 28.56 1.62 1.8 1.12 2.82.63 3.14-1.45 1.63-10.7 7.64-18.89 17.96-24.59 11.72-6.46 23.62-9.73 35.7-9.83 11.21-.1 11.52-1.72.9-4.87-3.4-1.05-9.03-1.21-16.86-.53-11 .95-20.86 2.67-29.49 5.2-4.34 1.26-4.81.45-1.35-2.49l40.64-34.1c2.83-2.37 6.63-3.38 10.26-2.68 2.52.5 13.29 2.6 32.26 6.3 4.85.94 9.02 2.5 12.49 4.74 1.29.84 2.03.48 2.19-1.06.12-1.09-.35-2.36-1.48-3.73-8.97-11-20.25-18.55-33.85-22.62a.396.396 0 0 1-.19-.64l19.49-23.26c.51-.6 1.16-.82 1.92-.72 36.08 5.8 67.51 19.12 94.27 39.89 3.94 3.04 4.4 2.6 1.37-1.39-14.07-18.56-32.5-33.11-55.28-43.65-4.04-1.86-5.14-7.15-2.11-10.47 8.49-9.37 17.42-12.2 26.72-8.52 8.26 3.24 8.99 1.75 2.22-4.56-5.54-5.1-11.88-10.44-19.1-16.09a3.254 3.254 0 0 1-.5-4.65c14.89-18.16 24.34-29.79 28.35-34.87 12.42-15.72 28.71-23.28 48.93-22.68 1.77.07 2.15-.66 1.12-2.09l-4.59-6.32c-1.22-1.65-1.51-3.49-.96-5.5 4.06-14.69 12.64-24.92 25.75-30.75 3.79-1.67 3.72-3.11-.27-4.29l-8.59-2.54c-3.68-1.09-4.86-5.7-2.17-8.44 14.67-14.89 32.84-22.02 54.51-21.36 14.27.43 26.45 1.7 36.53 3.85 7.97 1.69 8.36.64 1.15-3.16-11.04-5.81-21.71-9.52-31.94-11.17-.84-.12-10-1.88-27.53-5.23-1.41-.29-1.7-1.01-.86-2.17l23.73-33.65c.93-1.31 2.13-1.7 3.63-1.14 33 11.98 67.69 17.67 104.02 17.12.54 0 .85-.21.86-.66h-.04c.01-.47-.2-.74-.68-.8-33.34-5.33-62.9-19.05-88.66-41.23-.9-.77-1.2-1.73-.86-2.88l8.76-29.57c.43-1.46 1.28-1.79 2.59-.99 9.62 5.98 16.58 9.37 20.95 10.25 8.39 1.69 16.99.23 25.78-4.38 1.63-.85 1.58-1.66-.07-2.44-24.69-11.44-29.9-34.14-25.62-60.57 2.59-16.09 5.56-29.77 8.93-40.99 1.4-4.72 2.37-4.64 2.93.24 2.43 21.24 11.88 40.73 28.39 58.51 4.47 4.79 8.02 7.59 10.6 8.31 2.04.56 2.36.07.96-1.55-26.89-30.91-32.73-70.64-30.33-109.73.42-6.34 1.45-6.45 3.19-.35 3.24 11.18 6.72 21.97 11.41 30.37 19.86 35.33 50.87 47.98 93.03 37.9.31-.07.57-.25.78-.52.59-.87.57-1.5-.1-1.91-.07-.06-.14-.08-.27-.08-28.24-.02-58.42-13.17-69.96-39.58-5.25-11.98-8.72-25.07-10.47-39.31-.16-1.42 1.11-2.63 2.53-2.34 9.97 2.12 18.35 2.68 25.18 1.74 6.01-.85 6.36-2.75 1.06-5.69-14.16-7.82-24.11-17.9-27.13-34.73-2.66-14.68-2.03-30.89 1.91-48.7 19.05-85.89 85.22-149.14 171.21-165.39 4.2-.8 4.24-1.62.05-2.57-19.43-4.25-41.13-1.84-60.42 1.88-21.71 4.13-41.75 13.08-60.17 26.82-4.67 3.5-5.53 2.74-2.57-2.31 13.37-22.61 21.32-35.94 23.84-40.08 16.32-26.5 39.19-58.94 73.62-56.75 10.03.64 15.4.97 16.1 1.01 1.66.03 2.04-.56 1.18-1.74-4.37-5.97-3.29-12.57 3.17-19.88 10.83-12.19 24.6-17.83 41.36-16.95.9.06 1.83-.42 2.54-1.25.21-.27.23-.64.04-1.12-.2-.6-.63-.98-1.24-1.16-17.38-5.4-34.62-6.62-51.77-3.65-2.11.38-2.44-.22-1.01-1.8 8.67-9.57 20.52-20.83 35.56-33.73 15.18-13.07 34.2-20.41 57.1-22.09 21.2-1.57 52.04 4.15 62.35 24.14 2.03 3.98 2.86 3.73 2.38-.71-1.05-10.53-4.57-19.79-10.58-27.79-5.26-7.02-16.28-12.5-23.12-16.32-1.46-.85-1.28-3.01.34-3.53 6.65-2.16 13.27-2.12 19.88.05 29.01 9.51 50.02 28.04 72.42 50.44 6.44 6.41 7.41 5.7 2.85-2.16-8.4-14.59-17.98-29.31-28.78-44.23-1.37-1.86-2.27-3.76-2.7-5.68-.42-1.96-.59-4.06-.53-6.25.32-8.96.56-16.1.72-21.44.17-6.08 2.08-5.18 5.68 2.64 2.31 5.02 4.53 9.64 8.76 14.36 21.45 23.92 48.81 35.36 82.06 34.23 2.2-.1 4.55.97 7.11 3.19 15.77 13.81 38.48 25.71 59.85 24.4 8.03-.5 12.35-.72 12.99-.74 1.91.02 2.32.6 1.21 1.82-5.2 5.72-10.91 10.79-17.14 15.2-4.44 3.15-11.29 5.71-20.61 7.75-11.42 2.5-19.82 5.35-25.16 8.61-1.48.9-1.34 1.44.38 1.66 6.94.8 16.45 3.33 28.59 7.55 1.77.65 2.73 1.64 2.77 3.03.02 1.47-.66 2.1-2.12 1.96-13.06-1.41-25.76-.91-38.05 1.41-3.04.56-3.21 1.55-.41 2.92 9.93 4.94 18.69 11.12 26.33 18.56 3.59 3.52 5.99 6.95 7.25 10.32.5 1.27.03 1.89-1.32 1.78l-16.39-1.01c-12.09-.74-12.22.55-.4 3.89 14.21 4 29.06 14.28 44.66 30.79 18.49 19.7 33.66 43.84 45.47 72.41.63 1.52-.95 3.06-2.44 2.32-6.19-3.04-12.38-4.96-18.62-4.47-15.91 1.34-29.95 7.19-42.08 17.57-.95.8-.1 2.31 1.09 1.95 15.39-4.91 30.7-4.34 45.95 1.76 14.2 5.71 23.48 17.22 27.73 34.54 4.14 16.74 4.91 36.12 2.34 58.18-4.85 41.58-20.35 77.74-46.6 108.47-1.71 1.96-2.37 1.68-2.02-.93 3.72-27.64-12.4-49.27-35.5-62.41-3.64-2.08-4.3-1.4-1.95 2.09 21.35 31.44 17.68 78.07-11.17 103.65-4.35 3.84-12.59 9.83-24.69 17.88-9.04 6-17.82 11.16-26.31 15.44-3.68 1.87-4.58.94-2.62-2.7 11.05-20.55-.18-46.32-15.43-60.89-1.6-1.52-2.23-1.2-1.88.99.99 5.97 2.96 11.97 3.29 18.75 1.88 41.4-17.5 65.7-58.13 72.89-7.17 1.26-19.91 1.57-38.18.87-1.48-.06-1.51.18-.13.71Z"/><path fill="#28292a" d="M1894.11 842.14c-15.98-17.33-32.37-38.87-49.14-64.66-6.73-10.38-11.18-18.45-13.35-24.23-.5-1.27-.49-2.57-.04-3.81 3.1-8.64 8.83-25.3 17.22-49.97 15.55-45.75 73.45-84.46 116.62-100.79 51.5-19.5 77.52 13.36 83.95 59.4 2.38 16.77 2.29 34.51-.25 53.24-7.36 54.01-36.2 91.95-86.48 113.81-17.15 7.48-37.23 13.71-60.28 18.73-3.69.78-6.45.22-8.25-1.73Z"/><path fill="#fff" d="M1088.19 1216.25c8.41-.93 29.57-2.8 63.55-5.67 52.91-4.4 97.13 12.91 132.6 51.91 2.35 2.62 1.82 3.42-1.51 2.43-62.45-17.91-127.29-18.42-191.76-11.32-8.4.89-29.57 2.8-63.53 5.63-52.91 4.4-97.13-12.91-132.6-51.91-2.37-2.58-1.84-3.38 1.51-2.43 62.44 17.91 127.29 18.42 191.75 11.36ZM970.33 1387.43c-4.68.74-7.48 1.04-8.5.95q-2.895-.36-.48-1.77c8.15-4.84 14.65-8.05 19.47-9.67 51.21-17 104.15-23.18 158.88-18.53 19.62 1.64 42.41 4.01 68.35 7.14 32.19 3.86 67.56 6.28 106.05 7.3 31.67.83 61.49-1.82 89.49-7.91 11.46-2.49 12.03-.9 1.78 4.7-50.09 27.43-103.86 41.79-161.32 43.09-28.01.63-55.54-.8-82.63-4.28-75.51-9.72-121.72-15.69-138.62-17.9-26.26-3.44-43.77-4.49-52.48-3.11ZM1158.39 1479.13c-50.74-.26-101.66 11.4-148.81 17.63-75.06 9.89-143.91-7.24-206.56-51.37-22.47-15.83-41.47-34.64-56.99-56.47-2.39-3.34-1.84-3.92 1.63-1.69 14.54 9.35 28.39 17.96 41.6 25.88 62.32 37.35 130.64 56.25 204.97 56.74 43.76.28 83.09 1.04 117.89 2.25 12.14.42 24.02 2.27 36.08 3.39 3.41.3 6.89 1.25 10.4 2.79 1.25.58 1.17.85-.21.86ZM1257.49 1559.49c-34.33 21.54-73.68 34.83-118.06 39.88-38.77 4.41-75.06 4.55-108.84.43-42.41-5.13-78.12-19.34-109.87-45.39-4.27-3.48-3.71-4.65 1.7-3.5 16.5 3.59 34.01 6.03 52.47 7.36 55.79 4.05 93.67 6.71 113.63 8.04 54.21 3.58 104.85 1.64 151.91-5.82 6.08-.95 10.92-3.36 16.11-3.82 4.29-.4 4.6.53.96 2.83ZM966.63 1664.46c1.83.29 2.97.54 3.38.71 2.68 1.25 2.57 2.01-.29 2.38-41.16 5.29-80.9-.68-119.17-17.81-47.27-21.13-93.41-50.27-135.04-70.57-5.58-2.7-5.25-3.81.93-3.27 43.45 3.86 82.91 16.13 121.74 36.18 26.53 13.66 54.57 29.14 80.14 38.46 20.22 7.37 36.33 12.01 48.31 13.93ZM675.08 1635.69c13.03 21.92 31.44 37.93 55.26 48.07.63.27.87.72.76 1.39-.06.36-.28.67-.61.94-.15.08-.28.09-.4.09-11.29-1.47-19.81-3.7-25.51-6.68-19.69-10.29-36.19-24.44-49.51-42.44-9.2-12.45-19.3-26.82-30.25-43.08-4.28-6.4-11.03-13.19-20.19-20.41-11.86-9.27-28.27-18.22-49.22-26.8-1.04-.43-1.65-1.2-1.86-2.3-.09-.4-.05-.81.07-1.23.21-.56.57-.79 1.18-.74 33.6 3.03 68.39 16.16 91.82 41.71 12.71 13.86 19.84 36.96 28.47 51.48ZM783.4 1847.9c-67.82 7.28-122.34-40.9-167.78-86.65q-20.835-20.94-33.63-28.86c-31.27-19.36-69.56-30.24-104.06-34.74-1.32-.18-1.85-1.8-.84-2.67.97-.88 2.17-1.4 3.52-1.59 32.56-4.16 66.09-1.45 100.55 8.13 19.85 5.5 36.13 13.5 48.8 23.96 20.62 17 39.92 50.87 58.66 69.56 21.95 21.94 48.05 37.92 77.63 45.52 8.18 2.09 13.98 3.64 17.36 4.64 4.37 1.29 4.31 2.2-.21 2.69ZM319.58 1750.3c4.49 6.67 11.94 15.18 22.43 25.54 20.34 20.21 44.72 32.56 73.12 37.09 11.59 1.85 33.8 5.05 66.71 9.58 15.35 2.13 30.9 8.65 46.62 19.52 7.54 5.24 18.12 16.84 31.72 34.76 34.16 44.95 68.75 80.56 127.34 88.4 7.02.95 7.07 2.05.09 3.36-18.89 3.5-37.77 2.04-56.66-4.35-25.68-8.65-50.12-22.77-73.4-42.34-21.38-17.97-38.46-32.54-51.27-43.68-24.53-21.28-72.15-27.12-96.85-34.56-54.02-16.21-87.6-51.01-100.7-104.41-.31-1.22-.23-2.45.23-3.6.62-1.53 1.34-1.56 2.12-.12 4.37 7.93 7.19 12.89 8.5 14.82ZM592.88 2053.42c-27.88-.37-50.9-15.49-71.1-33.32-29.47-26-43.92-59.61-78.28-75.87-17.67-8.36-35.23-14.44-52.61-18.29-1.29-.3-1.78-1.86-.92-2.82.56-.63 1.4-.92 2.46-.98 39.38-.98 97.67 10.24 118.05 47.52 7.5 13.69 13.85 24.5 19.13 32.45 15.25 22.87 36.54 38.9 63.82 48.06 6.71 2.28 6.56 3.36-.55 3.26ZM493.59 2100.2c7.01 11.13 18.55 20.05 34.65 26.82.85.38.78 1.61-.14 1.88l-2.02.61c-1.13.29-2.23.34-3.37.13-30-6.17-47.11-27.01-63.92-51.8-5.34-7.88-9.59-13.27-12.67-16.23-10.49-9.95-23.29-16.16-37.5-22.12-9.8-4.11-9.38-5.95 1.21-5.48 8.94.39 18.86 2.37 29.83 5.91 17.73 5.79 30.56 16.39 38.46 31.83 6.94 13.61 12.11 23.07 15.48 28.45Z"/></svg>