<svg xmlns="http://www.w3.org/2000/svg" viewBox="0 0 1390.39 2753.76"><path fill="#fff" d="M133 433.97c-12.61-3.35-24.33-1.72-35.15 4.93-1.77 1.1-4.02-.28-3.87-2.36 2.34-36.18 10.73-73.87 27.71-104.12 22.07-39.25 54.46-69.54 97.18-90.87 23.71-11.83 47.93-17.43 72.68-16.71 55.9 1.6 101.21 52.69 128.92 99.27 36.23 60.94 60.37 129.62 72.43 206.05 4.44 27.95 6.9 54.7-3.36 81.57-31.19 81.8-100.93 143.8-188.12 153.23-22.7 2.45-43.1 0-61.16-7.26-20.98-8.45-18.87-24.35-14.09-42.87 3.59-13.92 9.75-26.46 18.45-37.6 5.44-7 4.53-8.01-2.77-3-18.7 12.75-32.39 32.06-41.02 57.82-.57 1.72-1.33 1.82-2.33.31-4.06-6.13-10.35-14.86-18.91-26.19-7.89-10.51-13.39-19.72-16.52-27.58-14.45-36.67-7.24-67.48 6.65-103.84 1.59-4.19.99-4.54-1.81-1.07-12.59 15.62-20.24 32.38-22.96 50.25-1 6.46-1.79 11.12-2.35 14.02-.35 1.78-.92 1.82-1.71.2-11.6-23.97-21.46-48.16-29.5-72.6-10.43-31.7-16.14-62.15-17.18-91.4-.74-20.81 19.44-33.18 38.82-38.74 1.77-.51 1.74-.99-.01-1.45ZM500.49 332.01c-26.72-28.41-47.99-58.87-63.86-91.36-16.06-33.02-18.64-68.94 10.1-95.06 25.06-22.76 53-38.52 83.83-47.3 20.78-5.91 38.56-7.28 53.36-4.17 19.49 4.12 35.58 14.13 48.27 30.05 16.3 20.37 26.44 43.49 30.47 69.35 7.56 48.46-6.57 88.91-42.36 121.32-26.73 24.21-59.12 35.88-97.18 35.11-5.98-.12-16.5 1.22-24.08 2.34-5.15.75-5.99-.8-2.52-4.64 2.91-3.27 4.6-7.28 5.18-12.01.15-1.4-.23-2.61-1.2-3.63ZM762.15 400.79c.99-.86 1.19-2.33.39-3.4-10.86-14.63-18.1-25.04-21.76-31.19-35.4-59.57-42.02-121.56-19.99-186.01 3.66-10.77 10.32-21.31 19.98-31.61 15.29-16.36 35.43-20.42 56.4-14.83 11.34 3.03 21.2 7.01 29.53 11.96 39.58 23.43 74.86 67.45 85.49 113.25 18.42 79.53-37.23 164.46-121.66 166.57-16.9.39-34.21-1.81-51.97-6.69-4.44-1.23-4.51-2.69-.22-4.34 9.33-3.61 17.26-8.19 23.82-13.71Z"/><path fill="#fff" d="M1170.34 1198.49c6.94 2.97 10.59 4.5 10.88 4.61 18.89 7.45 38.06 6.05 57.53-4.29 34.95-18.53 52.67-65.7 58.98-104.36 5.07-31.06 8.02-63.44 4.54-94.41-.4-3.51-3.97-5.72-7.28-4.51-18.65 6.8-21.44 19.11-28.77 35.19-.95 2.02-1.45 1.93-1.53-.3-.81-19.86 4.96-37.65 17.38-53.41 2.71-3.47 7.08-5.07 10.38-7.05 1.96-1.15 2.3-3.8.73-5.44-16.77-17.39-39.35-21.65-61.05-9.91-9.42 5.11-17.52 11.33-24.23 18.66-4.78 5.2-5.5 4.72-2.07-1.47 18.58-33.58 57.3-60.52 95.19-36.08.77.49 1.79-.06 1.8-.97-.2-17.56-.79-32.8-1.75-45.8-1.38-19.05-4.46-33.86-9.2-44.53-7.15-16.01-16.44-29.85-27.95-41.58-19.73-20.15-43.98-29.01-72.73-26.55-2.57.21-2.69-.18-.27-1.17 26.29-11 52.47-9.15 78.48 5.63 7.35 4.15 14.65 13.16 21.89 26.98.23.43.59.59 1.05.52.31-.03.57-.21.79-.56s.33-.82.26-1.37a1181 1181 0 0 0-8.92-49.19c-1.66-8.34-5.24-14.18-10.76-17.55-6.16-3.8-9.3-5.74-9.47-5.87-18.69-13.89-30.14-21.73-34.42-23.5-30.25-12.71-49.5-16.46-64.88-34.73-4.98-5.9-3.93-7.24 3.05-4.03 13.34 6.14 24.66 9.96 39.7 12.26 18.1 2.74 31.88 5.91 45.67 16.63 5.29 4.13 6.43 3.2 3.37-2.84-11.9-23.35-28.45-41.26-49.69-53.71-5.02-2.97-4.67-4.07 1.12-3.39 16.8 2.03 32.45 5.87 46.98 11.5 6.65 2.53 8.01.83 4.07-5.08-1.68-2.51-4.64-6.54-8.99-12.1-4.5-5.79-3.13-8.13 4.14-6.98 8.96 1.42 12.46-5.54 14.36-13.44 10.35-42.81 18.29-76.8 17.86-119.67-.45-43.82-17.91-89.55-56.96-111.27-22.9-12.73-43.66-9.15-62.36 10.74-27.66 29.45-45.35 66.78-53.12 112.06-.59 3.36-.12 6.48 1.37 9.31 9.85 18.73 16.15 36.79 18.91 54.19 1.08 7.1.05 14.08-3.1 20.93-1.71 3.66-5.2 6.28-7.51 10-.69 1.15-.87 2.33-.52 3.65 4.67 17.4 11.22 27.77 5.87 44.24-2.03 6.24-5.94 10.6-11.73 13.11-7.8 3.41-18.43 1.08-29.67.18-7.07-.53-11.94-.53-14.62-.03-28.22 5.54-45.53 21.27-51.91 47.17-2.41 9.73-4.08 9.59-5.02-.37-1.35-14.56-1.03-34.08 9.36-46.05 2.05-2.34 1.53-3.29-1.55-2.84-16.15 2.35-28.82 10.37-37.97 23.94-.74 1.08-1.25 2.23-1.51 3.51a8.8 8.8 0 0 1-1.23 2.94c-1.23 1.85-1.79 1.65-1.66-.55.65-10.37 4.07-20.15 10.26-29.38 8.18-12.18 27.28-18.83 41.01-22.64 3.56-.98 3.71-2.38.52-4.15l-10.65-5.87c-1.42-.77-1.77-1.91-1.01-3.36 2.05-3.94 4.83-11.23 8.35-21.93 11.73-35.82 18.27-55.62 19.58-59.33 1.8-4.98.4-6.23-4.28-3.69l-17.4 9.45a8.53 8.53 0 0 1-9.44-.88c-6.06-4.95-12.04-9.17-17.97-12.72-7.07-4.22-11.74-2.6-13.94 4.83-1.6 5.37-5.08 18.15-10.47 38.32-2.82 10.64 12.7 18.1 20.49 21.38 1.05.43.82 2.01-.34 2.14-11.72 1.31-20.93 3.21-27.66 5.73-1.4.53-1.76 1.46-1.07 2.81 3.67 7.25 7.84 13.27 12.57 18.12.46.43.71.8.72 1.07.07.96-.79 1.47-2.53 1.55-.39.03-.75-.04-1.11-.21-7.28-3.42-17.26-9.48-30.01-18.12-26.25-17.83-61.23-30.11-86.85-3.36-7.17 7.49-9.98 16.07-8.47 25.81.04.16-.02.29-.13.34l-.98.54c-.95.51-1.52.23-1.73-.84-1.31-6.52-4.7-20.98-2.07-27.87 3.63-9.48 11.6-19.45 17.42-25.16 4.44-4.32 3.78-5.29-1.96-2.94-4.61 1.91-8.27 3.8-10.97 5.77-7.17 5.17-8.26 4.08-3.33-3.19 4.99-7.4 12.55-13.51 22.64-18.31 1.2-.56 1.35-1.37.44-2.38-8.95-10.02-14-23.03-15.28-39.04-1.9-23.87-2.4-46.67-1.54-68.39.2-5.07-1.27-5.6-4.3-1.54-4.18 5.55-21.55 18.49-30.39 13.77-8.55-4.5-14.1-7.27-16.66-8.29-10.72-4.24-17.54-.63-20.43 10.82-3.5 13.6-5.61 25.3-6.42 35.12-.76 9.24 2.57 15.13 10.01 17.6 6.28 2.09 12.43 3.85 18.42 5.24 1.26.32 1.37 2.03.19 2.54-8.88 3.68-16.8 7.53-23.77 11.45-5.11 2.91-5.35 5.91-5.16 11.63.35 12.38 2.17 23.77 5.44 34.24 1 3.28.04 4.02-2.88 2.24-10.62-6.47-28.13-18.27-42.07-25.08-13.05-6.34-23.7-12.12-36.38-21.89-9.76-7.5-17.38-12.82-22.95-16.04-3.63-2.07-3.37-3.35.8-3.8 8.69-.94 18.06-.02 28.16 2.73 5.4 1.49 6.51-.07 3.28-4.69-8.63-12.29-19.55-31.39-32.8-57.29-17.61-34.45-22.67-76.04-47.91-106.26-.88-1.02-2.53-.63-2.81.71-3.59 17.02-9.63 37.82-28.43 43.43-3.11.91-5.44 1.32-7 1.21-20.29-1.41-33.56-2.3-39.73-2.69-1.94-.13-3.51 1.59-3.2 3.51 3.73 21.96 11.14 39.29 32.67 48.85 18.16 8.03 27.59 12.24 28.35 12.56 2.24 1.01 2.15 1.7-.28 2.16-9.52 1.66-18.9 4.34-28.09 7.96-2.43.96-3.78 3.6-3.1 6.1 4.29 16.11 7.61 30.78 9.96 44.07.51 2.87.26 9.37-.71 19.41-.12 1.53.41 1.83 1.68.91 10.06-7.37 19.27-12.29 27.66-14.7 8.68-2.53 9.75-.65 3.21 5.58-8.41 8.07-17.7 19.63-27.84 34.74-2.7 4.06-1.86 4.79 2.51 2.19.9-.53 5.45-3.46 13.67-8.79 39.58-25.59 75.36-16.12 106.87 15.43 1.48 1.47 2.2 2.45 2.16 2.88-.14 1.76-1.33 3.09-2.31 2.62-10.09-5.17-18.87-9.19-26.36-12-29.37-11.08-55.84-5.09-79.42 17.96-4.76 4.64-4.1 5.6 1.91 2.83 27.37-12.54 51.01-6.3 70.92 18.71 3.49 4.42 2.79 5.22-2.12 2.47-10.86-6.08-22.37-9.34-36.14-7.46-37.15 5.02-65.19 22.79-84.11 53.41-23.96 38.77-46.2 72.25-66.74 100.38-.88 1.16-.6 1.51.75 1.05 11.43-3.84 26.32-8.11 44.69-12.75 4.42-1.09 7.92-2.44 10.49-4.06 6.84-4.26 7.53-3.32 2.17 2.82-16.61 18.95-34.57 30.88-53.88 35.81-11.62 2.99-11.49 5.33.37 7.04 67.92 9.82 130.99 27.14 189.39 63.11 26.18 16.1 48.07 36.8 65.77 62.11 15.57 22.31 30.49 46.43 44.74 72.42 15.78 28.71 27.41 58.35 34.96 88.94.07.37-.01.64-.29.89l-1.01.91c-.15.13-.3.11-.37-.12-10.63-28.36-27-53.48-49.09-75.3-.61-.62-1.65-.19-1.68.68-1.99 47.56-11.42 93.46-28.2 137.76-16.48 43.5-42.41 80.06-77.74 109.72-5.22 4.38-11.98 8.46-20.24 12.17-1.36.61-1.51.41-.42-.59 13.42-12.43 22.2-21.66 26.38-27.62q35.475-50.73-10.44-92.64c-5.02-4.56-10.67-7.41-15.58-10.93-1.8-1.3-1.57-1.97.63-2.03 21.08-.48 47.24 9.8 53.96 32.15 1.19 3.95 2.48 3.98 3.76.05 2.97-9.03 5.53-18.89 7.68-29.53 2.87-14.25 4.46-24.31 4.82-30.1 2.31-38.49-28.07-74.07-65.4-81.2-4.12-.81-4.14-1.76-.09-2.86 25.62-7.04 52.32-3.15 69.23 19.03 1.59 2.09 2.26 1.82 2.08-.77-3.17-40.29-17.77-76.83-43.75-109.65-13.78-17.42-28.02-30.57-42.79-39.49-15.25-9.24-29.95-10.82-44.03-4.81-15.1 6.47-26.33 16.89-33.74 31.25-.59 1.09-2.25.63-2.15-.61 1.24-15.92 7.02-29.98 17.33-42.18 4.07-4.76 9.8-7.78 16.33-10.01 1.57-.53 1.61-2.73.08-3.36-28.55-11.85-56.35-18.2-83.35-19.05-22.7-.65-40.48 2.58-53.35 9.8-10.72 6-11.54 4.99-2.47-3.03l12.31-10.87c1.02-.87.93-1.64-.33-2.19-3.27-1.5-7.39-2.22-12.42-2.17-10.66.14-21.23 1.97-31.75 5.49-2.95 1.02-3.53.19-1.78-2.35 7.05-10.34 15.68-19.67 25.91-27.91 1.13-.93 1.17-1.86.12-2.88-1.02-.95-2.4-.98-4.11-.19-11.57 5.6-20.08 10.55-25.56 14.88-1.37 1.07-1.85.78-1.44-.9 1.48-6.08 5.39-14.03 11.7-23.88 5.15-8.03 8.19-14.68 9.1-20.05 1.28-7.52 1.74-15.14 1.37-22.86-.07-1.65-.78-1.77-2.14-.43-.44.46-3.33 3.67-8.66 9.71-14.19 16.03-38.67 23.68-59.58 25.07-3.37.24-5.79 1.14-7.28 2.77-22.71 24.3-50.15 35.56-82.23 33.82-6.33-.35-11.16-2.04-16.35-3.96-8.08-2.99-10.06-2.27-5.88 2.15 3.65 3.88 8.54 9.11 14.65 15.67 1.5 1.59 3.1 2.95 4.79 4.04 1.66 1.05 3.64 1.76 5.92 2.11 18.2 2.91 35.38 6.55 51.63 10.92 8.78 2.34 8.61 3.52-.48 3.55-31.69-.01-59.64 1.74-86.88 15.54-6.21 3.14-10.92 7.79-14.09 14.02-.78 1.51.62 3.17 2.25 2.74 7.54-2.14 19.2-6.06 27.89-4.81 9.91 1.4 18.94 5.46 27.13 12.16 3.48 2.8 3.08 3.57-1.17 2.19-21.43-6.85-47.28 10.93-61.16 27.02-15 17.39-23.27 36.03-24.76 56-1.51 19.76-1.93 36.1-1.29 49 .1 2.13.75 2.32 1.98.56 10.03-14.23 23.09-25.55 39.2-34.03.56-.3 1.13-.34 1.69-.06.48.2.72.48.77.82.09 1.09-.24 2.08-.92 2.68-12.47 11.23-18.21 24.96-17.25 41.23.6 9.74 4.5 15.17 11.81 16.3 1.44.22 1.59.91.39 2.06-.52.47-4.55 4.02-12.1 10.67-25.89 22.8-19.13 61.91-11.93 92.19 1.15 4.7 4.95 19.75 11.48 45.2 1.48 5.66 2.63 5.58 3.45-.19 3.31-22.74 11.16-43.25 23.59-61.51 11.01-16.27 24.64-33.32 41.39-44.06 3.63-2.28 4.19-1.68 1.78 1.86-49.31 72.3-51.37 163.81-4.11 238.01 9.81 15.39 20.82 27.29 33.09 35.79 14.04 9.76 28.2 9.86 43.74 5.38 5.84-1.67 6.93-.08 3.28 4.77-4.16 5.49-10.49 11.02-19.04 16.58-1.21.79-1.25 2.54-.13 3.44 11.3 8.83 23.01 15.63 35.2 20.39 26.82 10.51 57.47-1.53 77.45-21.49.09-.09.16-.13.25-.13.76-.19 1.22.25 1.42 1.28.05.34-.02.64-.19.92-22.68 36.94-53.54 49.92-92.57 38.98-9.26-2.62-19.35-7.79-29.54-13.41-5.55-3.09-6.2-2.28-2.01 2.5 25.94 29.34 58.17 53.31 99.04 56.15 2.13.16 2.26.73.41 1.77-2.33 1.32-6.83 1.85-13.37 1.62-24.24-.9-44.71-7.99-61.45-21.3-3.84-3.05-4.59-2.42-2.24 1.91 5.56 10.31 13.13 22.09 22.67 35.29 15.66 21.72 35.39 34.08 60.94 24.72 1.72-.61 2.33-.08 1.78 1.67-2.96 9.48-8.02 16.6-15.14 21.33-3.71 2.47-11.04 4.99-22.06 7.57-1.49.35-1.86 1.19-1.14 2.53l14.72 27.1c.57 1.05 1.47 1.52 2.65 1.43 33.9-2.53 64.5-13.73 91.85-33.54.38-.3.72-.25 1.04.07h.03c.32.31.24.68-.14 1.06-25.31 26.08-53.86 46.59-85.66 61.45-1.47.66-2.04 1.79-1.77 3.37l7.01 40.57c.23 1.43.94 1.73 2.15.93 14.77-10.02 22.48-15.26 23.16-15.76 8.41-6.07 18.57-10.99 30.49-14.69 7.79-2.41 8.26-1.39 1.43 3.05-8.66 5.61-18.17 13.32-28.56 23.1-15.78 14.86-23.59 32.75-23.44 53.65.04 3.85 4.13 6.27 7.51 4.44l7.87-4.28c3.66-1.98 4.73-1.02 3.23 2.85-5.15 13.4-3.98 26.69 3.54 39.95 1.02 1.81 2.53 2.91 4.56 3.21l7.72 1.23c1.75.28 1.99 1.06.69 2.26-14.73 13.87-20.91 30.75-18.57 50.64.76 6.42 2.3 21.33 4.61 44.7a3.27 3.27 0 0 0 3.65 2.94c9.09-1.11 17.35-1.82 24.87-2.13 9.25-.33 9.78 1.24 1.65 4.79-9.17 3.98-13.49 12.29-12.87 24.92.21 4.49 4.73 7.45 8.9 5.91q35.355-12.975 69.96-8.22c4.96.68 4.95 1.32.01 1.95-33.61 4.24-65.25 17.05-94.87 38.46-.61.46-.91 1.08-.85 1.87l2.67 30.23c.03.3.34.45.59.32 12.5-6.74 25.81-9.38 39.93-7.94 1.78.17 3 .74 3.69 1.59.97 1.21.71 1.99-.8 2.3-4.04.88-8.09 2.71-12.18 5.48-16.03 10.8-25.13 16.93-27.27 18.36-3.06 2.07-5.04 5.47-5.36 9.15l-4.62 52.85c-.37 4.52.53 4.76 2.71.8 4.31-7.9 10.07-16.07 17.17-24.53 5.06-6.02 9.16-9.88 12.3-11.55 9.74-5.29 10.66-3.92 2.81 4.08q-12.72 12.915-18.3 32.19c-3.26 11.33-1.72 21.38 4.69 30.09 1.24 1.69.87 2.76-1.19 3.24-11.48 2.68-18.58 9.05-21.34 19.06-2.19 7.78-3.35 13.1-3.54 15.94-1.39 20.32-2.61 37.1-3.69 50.29-.42 5.33.88 5.81 3.97 1.44 2.24-3.17 5.36-6.23 9.32-9.06 4.25-3.08 5.43-2.17 3.59 2.74-6.08 15.95-2.74 30.25 10.02 42.94.91.92.75 1.37-.54 1.43-22.08 1.25-26.55 18.83-26.14 38.36.67 30.73 3.46 59.35 8.37 85.9 1.73 9.31 4.22 9.46 7.48.45 2.24-6.27 7.99-12.94 17.18-20.07 1.03-.79 2.43.27 1.93 1.45-3.04 7.57-5.4 17.22-7.07 28.97-1.81 12.86 1.14 22.73 8.84 29.61 3.97 3.53 3.31 5.26-2.01 5.1-11.35-.35-16.57 2.94-15.67 9.78 1.63 12.73 7.04 29.4 11.83 38.23 4.26 7.74 13.82 9.1 28.82 4.1 2.52-.87 3.03-.19 1.55 2.03-6.41 9.49-16.77 31.31-11.37 42.86 7.28 15.57 16.44 31.35 27.53 47.41 9.29 13.43 27.85 29.75 44.79 19.37 17.94-10.97 29.77-17.76 35.54-20.39 1.36-.6 1.69-.24 1.11 1.13-.75 1.72-4.02 7.01-9.9 15.8-6.9 10.34-21.31 37.7-14.06 50.96 13.51 24.8 32.4 44.17 56.7 58.15 4.25 2.47 5.58 1.39 4.01-3.26-4.33-12.67-4.75-27.19-1.21-43.55.6-2.83 1.41-2.86 2.45-.19 2.84 7.33 5.63 13.65 8.4 18.83 10.57 19.8 25.91 30.36 46.05 31.67 1.42.09 1.54.57.39 1.38-3.9 2.71-6.76 5.4-8.66 8.02-3.78 5.29-2.66 9.1 3.39 11.45 17.06 6.67 35.85 11.35 56.43 13.97 1.76.22 3.49-.62 4.33-2.17l29.49-53.57c1.16-2.13 2.03-1.96 2.6.5.36 1.76-.12 6.17-1.49 13.19-2.37 12.4-.46 25.06 5.72 38.04 4.65 9.72 12.42 15.24 23.35 16.59 34.75 4.3 68.64 4.01 101.6-.91 6.86-1.04 7.17-2.99.82-5.87-9.8-4.46-18.47-12.81-26.03-25.05-3.32-5.44-2.21-6.59 3.34-3.5 9.85 5.49 19.52 10.06 29.08 13.66 8.86 3.33 18.65 2.57 29.42-2.23 2.75-1.22 4.41-.35 4.92 2.61.37 2.02 1.26 4 2.62 5.9.79 1.12 2.15 1.7 3.54 1.49 16.5-2.72 31.39-8.07 44.68-16.11 9.34-5.62 3.33-27.48.72-35.81-.6-1.86 1.15-3.58 3-3.03 20.05 5.9 47.14 8.76 63.12-3.88 15.24-12 28.25-27.35 39.05-46.1 2-3.45 1.18-4.28-2.35-2.5-7.7 3.86-13.14 6.91-16.4 9.13-7.26 4.9-14.06 6.04-20.41 3.39-6.66-2.8-13-5.5-17.65-9.12-1.82-1.42-1.57-1.97.69-1.65 9.73 1.41 18.75-.85 27.11-6.75 5.01-3.59 10.57-6.34 14.62-9.63 1.09-.91 1.05-1.75-.14-2.51-12.84-8.56-21.82-19.65-27.03-33.35-1.99-5.25-1.09-5.78 2.61-1.55 14.82 16.8 40.05 21.26 57.28 8.99 16.36-11.7 28.77-41.98 37.47-64.68 1.27-3.28.35-4.06-2.67-2.33-16.05 9.17-31.95 9.66-47.65 1.44-4.25-2.2-3.97-3.54.8-3.9 10.98-.82 23.83-3.29 31.47-10.85.85-.87.55-2.35-.59-2.77-29.18-11.15-44.56-32.84-46.09-65.1-.2-4.22.46-4.35 1.97-.39 6.83 17.78 19.88 29.9 39.19 36.39 17.13 5.81 36.99 2.22 42.21-16.41 7.07-25.28 11.11-52.55 12.08-81.85.52-15.89-8.65-29.85-26.33-22.93-11.43 4.43-19.12 12.66-23.12 24.66-2.43 7.33-3.21 7.16-2.38-.53 1.7-15.99 6.98-29.32 15.91-39.95 2.73-3.26 1.76-8.24-2.05-10.22-5.27-2.74-10.6-3.94-16.05-3.67-1.41.09-2.31-1.57-1.49-2.74 12.78-18.04 36.14-21.95 53.95-9.36.9.65 2.13-.02 2.11-1.15-.27-31.26-2.31-59.14-6.04-83.7-1.19-7.73-5-12.81-11.47-15.26-6.76-2.56-13.95-.88-23.08.25-4.47.56-5.11-.78-1.98-3.98 3.38-3.43 6.95-6.64 10.83-9.66 1.43-1.14 2.02-1.96 1.81-2.53-1.43-3.73-5.51-5.79-9.45-4.74-9.25 2.42-15.7 5.88-19.41 10.35-10.48 12.57-20.03 23.81-28.65 33.68-3.89 4.48-8.66 7.93-14.25 10.38-.97.39-1.89.29-2.77-.32a5.6 5.6 0 0 1-.86-.76c-.8-.89-.82-1.83-.08-2.74 7.27-8.91 11.42-14.34 12.41-16.29 11.75-22.36 23.61-43.28 41.52-56.64 11.12-8.27 29.83-1.91 40.48 4.55.7.44 1.61-.14 1.53-.96l-6.26-71.3c-.39-4.39-4.74-7.3-8.96-6.01-18.23 5.66-19.58 15.91-23.33 32.65-.88 4.07-1.54 4.02-2.01-.1-2.06-19.13.72-38.07 8.32-56.86 2.36-5.87 6.59-9.81 12.76-10.7 4.34-.63 4.63-2.11.92-4.42-10.37-6.43-22.09-7.57-35.16-3.39-13.23 4.22-21.71 12.66-25.49 25.22-.15.58-.36.61-.65.08l-1.14-2.11a.7.7 0 0 1-.09-.41c2.33-10.73 5.26-19.24 8.79-25.57 7.34-13.05 17.82-20.65 31.44-22.9 5.82-.93 5.98-2.48.45-4.53-27.54-10.39-55.48 4.78-74.58 25.85-14.69 16.21-24.63 26.89-29.79 32.06-8.99 8.93-10.37 7.91-4.15-3.11 16.29-28.92 32.9-58.43 61.77-74.51 9.54-5.32 17.97-7.72 25.29-7.23 15.74 1.06 31.38 4.63 46.96 10.69 1.72.66 3.54-.61 3.53-2.47-.18-26.8-15.82-43.71-43.12-30.02-6.07 3.07-7.02 1.9-2.81-3.43 4.78-6.11 11.26-10.85 19.44-14.16 8.42-3.43 14.41.73 21.07 6.13 1.59 1.32 3.14 1.58 4.65.75 1.28-.65 1.64-1.66 1.06-2.99-6.04-13.88-15.78-22.6-29.24-26.18-1.86-.49-1.91-1.09-.09-1.76 9.19-3.45 18.17-4.09 27.03-1.94 1.57.38 3.1-.91 2.94-2.55-.34-3.55-.88-10.59-1.66-21.08-.7-9.41-2.33-15.94-4.87-19.62-4.88-7.05-12.56-8.88-23.1-5.39-9.61 3.17-17.24 7.72-22.92 13.77-3.49 3.72-4.34 3.17-2.6-1.59 4.23-11.41 10.8-20.52 19.76-27.4 3.06-2.34 3.12-4.83.22-7.4-10.75-9.4-22.83-14.63-36.26-15.72-47.83-3.93-84.49 14.66-109.94 55.79-2.07 3.31-3.12 5.06-3.24 5.26-4.37 8.06-5.35 7.6-2.91-1.33 14.16-52.38 67.33-80.44 118.52-79.88 11.86.11 28.21 2.98 49.07 8.63 11.74 3.18 20.51 6.75 26.3 10.71 1.15.78 2.3.8 3.47.02 1.26-.86 1.75-2.31 1.46-4.34-.17-1.32-.14-2.61.07-3.91l12.04-74.63c.64-3.94-.38-4.39-3.02-1.46-18.64 21-41.13 29.12-67.51 24.38-5.66-1.03-5.61-1.87.09-2.51 20.86-2.41 41.64-17.38 39.85-40.21-.48-5.98-2.84-9.66-7.16-11-17.46-5.58-33.57-2.39-48.25 9.55-2.65 2.16-3.17 1.71-1.57-1.29 11.82-22.17 44.24-36.81 67.15-38.88 6.37-.59 12.33 1 17.91 3.65 3.22 1.49 5.05.5 5.5-3.03 4.59-35.31 10.4-68.87 17.39-100.75 1.88-8.53 2.34-14.38 1.29-17.58-2.34-7.24-7.57-11.33-15.67-12.25-10.55-1.24-19.52 3.77-26.97 14.96-2.37 3.52-4.33 7.95-5.92 13.23-.02.06-.16.04-.41 0l-1.15-.11c-.34-.04-.62-.39-.57-.78 3.93-31.58 20.59-50.78 50.03-57.58 1.18-.27 1.39-.88.66-1.81-26.71-34.52-58.62-54.47-95.66-59.89-8.47-1.27-8.43-2.29.08-3.13 32.02-3.15 62.6 4.64 91.71 23.38 1.69 1.09 3.9-.2 3.78-2.18-.53-8.6-.74-13.17-.65-13.76 1.8-11.86 2.36-22.4 1.65-31.67-.54-6.94-3.51-8.47-8.92-4.53l-7.41 5.39c-1.31.94-2.29.65-2.93-.96-.92-2.28-1.99-6.43-3.22-12.46-2.91-14.34-18.58-22.9-32.08-24.72-4.26-.55-4.39-1.62-.38-3.21 16.78-6.56 33.29-7.34 49.52-2.26 3.24 1.01 6.64-1.11 7.19-4.45l9.15-56.82c.11-.65-.55-1.11-1.08-.82-5.8 2.97-11.93 7.7-19.26 6.95-15.39-1.61-28.54-8.81-42.37-17.18-4.08-2.48-3.76-3.33.97-2.58 12.47 2.02 24.82 3.55 36.06-.14 11.4-3.74 21.61-11.42 30.56-23.02 2.64-3.43 1.85-4.64-2.36-3.59-8.43 2.08-14.94 3.25-19.52 3.46-5.27.26-5.91-1.34-1.91-4.79 12.59-10.75 22.74-20.73 27.8-36.99.87-2.84.09-3.42-2.39-1.71-14.07 9.88-29.67 17.71-46.08 14.06-16.54-3.72-30.63-11.32-42.3-22.83-4.42-4.37-3.77-5.36 1.96-2.93m-221.69 154.53c25.49-20.03 52.21-43.33 80.15-69.83 22.98-21.81 42.2-44.77 57.69-68.88 6.34-9.86 7.87-9.14 4.58 2.06-16.03 54.82-43.9 102.99-83.6 144.54-19.36 20.25-39.84 38.7-61.45 55.4-60.27 46.52-97.16 74.97-110.68 85.36-21.01 16.14-34.13 27.77-39.31 34.91-2.79 3.84-4.56 6.03-5.34 6.68-1.53 1.2-2.06.89-1.59-.91 2.34-9.19 4.67-16.06 6.93-20.61 24.2-48.23 57.25-90.03 99.25-125.44 15.03-12.72 32.82-27.16 53.37-43.28m-51.83 453.73c-48.37 18.48-101.6 30.5-145.39 45.59-5.86 2.04-6.41 1.02-1.66-2.97 33.46-28 70.03-47.22 111.67-60.5 28.41-9.11 59.19-17.99 83.86-29.47 19.5-9.09 34.17-17.2 44.01-24.31 1.5-1.09 2.48-1.71 2.89-1.89 2.77-1.01 3.24-.4 1.48 1.88-25.36 32.85-57.69 56.73-96.86 71.67m92.64 187.61c-42.81 53.11-115.43 57.59-179.91 57.37-19.69-.05-34.42 1.08-44.19 3.38-35.8 8.42-70.56 27.8-98.14 49.02-1.07.8-2.58.03-2.48-1.3.06-1.31.54-2.52 1.36-3.61 20.08-25.97 45.71-47.76 76.85-65.35 17.93-10.15 35.09-16.01 51.46-17.56 26.6-2.57 64.19 7.74 90.66 7.7 31.04-.01 60.8-7.16 87.08-22.71 7.27-4.3 12.46-7.31 15.56-8.99 4-2.17 4.6-1.5 1.75 2.05m-270.75-298.49c-27.08 4.69-53.82 4.82-80.23.37-4.05-.67-4.07-1.48-.04-2.35 16.9-3.66 32.78-7.37 47.72-11.12 70.48-17.65 132.16-52.6 185.05-104.81 31.14-30.75 59.48-58.02 84.96-81.77 8.88-8.29 18.59-15.38 27.9-23.12 2.63-2.21 5.76-3.99 9.33-5.38 1.29-.48 1.42-.23.45.75-36.06 35.69-63.82 79.95-92.76 117.69-46.08 60.07-106.88 96.64-182.38 109.74m-104-236.11c56.82-31.49 103.04-76.98 143.62-127.56 5.29-6.6 18.93-22.89 40.92-48.94 34.3-40.52 77.82-59.55 130.47-57.06 3.51.19 3.71 1.13.65 2.79-56.82 31.49-103.03 76.98-143.6 127.59-5.31 6.57-18.93 22.89-40.94 48.91-34.3 40.52-77.82 59.55-130.47 57.06-3.49-.15-3.69-1.1-.65-2.79m-2.86 480.3c25.9-21.62 59.79-36.93 94.42-35.43 18.78.81 40.16 12.1 56.54 16.27 24.71 6.29 49.05 4.59 73.07-5.09.63-.25 1.12-.11 1.52.45.2.3.27.68.23 1.11-.05.16-.14.25-.22.34-9.02 6.95-16.62 11.39-22.77 13.32-21.2 6.64-42.87 8.31-65.01 4.99-15.31-2.29-32.62-5.32-51.86-9.07-7.55-1.5-17.13-1.53-28.71-.16-14.94 1.83-32.88 7.11-53.76 15.86-1.04.43-2.01.31-2.94-.32-.35-.22-.61-.53-.82-.92-.25-.54-.16-.96.31-1.35m205.37 362.77c-18.41 6.58-35.12 14.7-50.13 24.26-1.13.7-2.58-.05-2.64-1.34-.05-.84.33-1.64 1.04-2.43 27.15-28.54 76.3-61.83 117.07-49.87 14.99 4.37 27.12 7.53 36.48 9.41 26.95 5.39 53.34 1.67 79.11-11.14 6.35-3.14 7.01-2.26 1.91 2.69-19.98 19.45-46.94 25.03-73.84 26.71-39.22 2.46-73.2-11.09-109 1.71m190.41 70.75-1 1.86c-.59 1-1.33 1.82-2.29 2.48-25.58 16.84-52.41 14.21-81.83 8.56-9.35-1.79-16.16-2.6-20.44-2.51-14.45.38-27.89 5.05-42.16 10.88-9.83 4.02-10.83 2.42-3.02-4.73 6.59-6.04 15.01-11.66 25.27-16.91 16.63-8.44 33.2-10.02 49.71-4.69 14.53 4.72 24.87 7.75 31.06 9.17 12.82 2.91 27.29 1.06 43.47-5.54.86-.33 1.68.59 1.23 1.43m-3.05-228.48c5.64-4.29 6.45-3.55 2.44 2.31-10.88 15.84-25.27 28.15-43.13 36.99-24.28 12.05-51.54 19.34-81.85 21.96-27.82 2.41-50.2 4.19-67.13 5.37-32.39 2.29-70.2 31.84-92.93 44.04-49.66 26.74-98.01 25.87-145.03-2.62-1.08-.65-1.9-1.57-2.38-2.72-.64-1.51-.16-2.05 1.41-1.58 8.7 2.51 14.21 4.03 16.49 4.47 7.9 1.54 19.18 2.28 33.93 2.2 28.67-.1 54.64-8.6 77.92-25.48 9.51-6.89 27.47-20.33 53.94-40.4 12.36-9.35 27.97-15.73 46.77-19.16 9.04-1.63 24.72-.9 47 2.15 55.94 7.63 105.58 8.35 152.55-27.53m116.17-689.91c-9.04 39.51-27.47 76.74-55.28 111.69-24.3 30.53-49.86 56.29-76.66 77.26-33.62 26.36-68.92 41.57-109.79 45.6-5.47.56-5.91-.66-1.27-3.68 14.21-9.12 28.31-19.79 42.31-31.89 42.31-36.59 70.98-61.49 86.03-74.67 40.87-35.8 75.3-72.98 103.3-111.53 3.63-4.98 5.35-10.1 8.69-14.1 2.75-3.31 3.62-2.88 2.67 1.32"/><path fill="#fff" d="M1063.66 497.78c-23.55-.96-50.38-4.59-80.47-10.97-12.1-2.58-20.95-5.14-26.57-7.69a5.3 5.3 0 0 1-2.72-2.66c-3.91-8.3-11.65-24.13-23.16-47.51-21.35-43.34-7.79-111.66 11.19-153.74 22.63-50.2 64.26-45.36 101.36-17.36 13.54 10.17 26.03 22.78 37.47 37.82 32.99 43.4 39.42 90.61 19.33 141.62-6.84 17.41-16.63 36.02-29.38 55.87-2.06 3.17-4.4 4.71-7.06 4.61Z"/></svg>