<svg xmlns="http://www.w3.org/2000/svg" viewBox="0 0 2119.63 2436.7"><path fill="#28292a" d="M2035.42 758.62c12.48 3.81 21.57 11.38 27.25 22.74.92 1.87 3.56 1.89 4.53.04 17.11-31.97 29.88-68.41 31.42-103.07 1.97-44.98-9.56-87.8-34.58-128.47-13.9-22.56-31.52-40.1-52.91-52.55-48.32-28.14-113.77-8.66-161.89 16.28-62.93 32.64-119.69 78.24-170.27 136.79-18.52 21.4-34.73 42.82-40.2 71.06-16.68 85.94 9.84 175.41 78.92 229.43 17.99 14.06 36.6 22.75 55.77 26.11 22.28 3.89 28.87-10.72 34.59-28.98 4.3-13.72 5.68-27.63 4.17-41.68-.92-8.82.38-9.19 3.94-1.09 9.16 20.7 10.59 44.32 4.32 70.76-.42 1.76.17 2.25 1.82 1.5 6.68-3.06 16.63-7.16 29.88-12.27 12.25-4.76 21.78-9.68 28.59-14.7 31.63-23.52 41.77-53.5 49.15-91.71.86-4.4 1.56-4.38 2.1.05 2.45 19.91.1 38.19-7.01 54.8-2.56 6.01-4.35 10.39-5.4 13.15-.64 1.7-.18 2.03 1.35 1.07 22.51-14.23 43.64-29.58 63.38-46.1 25.59-21.42 46.51-44.28 62.83-68.57 11.61-17.28 1-38.44-12.53-53.39-1.24-1.37-.95-1.76.78-1.22ZM1777.09 478.07c37.69-10.03 71.84-24.68 102.46-43.9 31.07-19.57 52.22-48.72 41.59-86.08-9.27-32.55-24.69-60.69-46.24-84.42-14.53-15.99-28.91-26.54-43.12-31.7-18.73-6.79-37.68-6.77-56.86.05-24.59 8.7-45.41 22.99-62.48 42.82-32 37.17-41.35 78.99-28.05 125.4 9.93 34.67 31.28 61.68 64.02 81.11 5.14 3.06 13.37 9.74 19.22 14.7q5.97 5.025 4.59-2.61c-.75-4.31-.07-8.61 1.94-12.93.61-1.27 1.57-2.09 2.93-2.45ZM1518.53 398.4c-.39-1.25.22-2.61 1.46-3.09 16.95-6.7 28.59-11.71 34.95-15.01 61.5-31.92 99.85-81.07 115.14-147.45 2.57-11.08 2.48-23.55-.29-37.39-4.35-21.96-19.32-36.04-40.08-42.36-11.24-3.41-21.71-5.23-31.39-5.42-45.99-.99-99.19 17.78-132.38 51.08-57.62 57.83-55.17 159.34 15.43 205.69 14.15 9.25 30.02 16.52 47.68 21.75 4.42 1.3 5.25.09 2.48-3.57-6.02-7.99-10.34-16.07-13-24.22Z"/><path fill="#28292a" d="M1156.13 1189.17c-5.06-7.52-8.65-14.55-10.77-21.03-14.36-43.83-17.09-88.58-8.13-134.23 9.13-46.48 25.34-90.45 48.75-131.89.44-.76-.21-1.67-1.06-1.47-30.28 6.88-57.44 19.57-81.44 38.06-.19.15-.32.09-.38-.1l-.37-1.31c-.11-.35-.03-.63.22-.91 22.55-21.99 48.08-41.03 76.63-57.09 25.82-14.56 51.23-27.17 76.23-37.9 28.39-12.15 57.91-18.18 88.64-18.04 68.59.27 131.3 18.84 194.18 46.35 10.97 4.8 12.32 2.88 4.02-5.79-13.8-14.38-22.75-34-26.87-58.86-1.31-8.04-.22-8.48 3.34-1.25 1.33 2.74 3.59 5.74 6.77 8.99 13.15 13.64 23.55 25.12 31.23 34.42.9 1.1 1.32.95 1.19-.49-2.6-34.74-3.83-74.91-3.72-120.49.09-35.99-14.34-65.89-43.25-89.75-10.71-8.87-22.2-12.17-34.63-12.74-5.62-.25-5.8-1.3-.5-3.22q45.165-16.11 70.11 21.54c3.65 5.52 4.71 5.05 3.11-1.4-7.87-32.02-27.18-51.08-57.98-57.16-7.84-1.57-17.42-2.79-28.72-3.72-1.08-.12-1.39-1.88-.58-3.44.19-.39 1.32-.84 3.35-1.31 43.42-10.16 78.81.67 98.92 43.3 4.17 8.86 6.49 13.75 6.97 14.67 2.34 4.51 3.44 4.35 3.29-.53-.64-18.18-2.43-32.9-5.31-44.2-2.26-8.75-.36-9.78 5.68-3.05 5.85 6.48 11.08 15.51 15.73 27.08.6 1.45 1.21 1.48 1.91.11 4.48-9.04 7.7-14.69 9.65-16.86 9.01-10.05 19.58-20.76 31.72-32.18 1.89-1.77 2.15-4.72.58-6.82-5.89-7.92-12.44-15.15-19.65-21.59-1.83-1.68-1.54-2.3.9-1.98.81.14 11.05 1.54 30.7 4.3 23.34 3.24 38.77-7.57 53.53-24.25 1.28-1.47.86-3.75-.86-4.67-5.44-2.93-17.19-9.18-35.17-18.69q-2.07-1.095-5.31-4.71c-13.01-14.69-7.16-35.55-1.23-51.9.47-1.28-.72-2.49-2.01-2.08-37.39 12.35-63.63 45-96.77 64.97-24.92 15.01-44.28 25.47-58.09 31.36-5.18 2.21-5.06 4.12.31 5.72 10.03 2.99 18.48 7.16 25.36 12.54 3.31 2.58 2.86 3.81-1.33 3.65-6.42-.21-15.71.29-27.96 1.5-15.93 1.61-28.02.9-42.45-.6-15.44-1.57-36.53-.79-48.97-.9-3.42-.03-3.84-1.17-1.26-3.43 8.3-7.16 15.86-15.88 22.69-26.21 3.18-4.76 4.56-7.43 1.76-12.6-3.85-7.01-8.55-14.46-14.15-22.28-.74-1.05.26-2.45 1.5-2.05 5.82 1.98 11.97 3.73 18.41 5.26 7.62 1.83 13.56-1.41 17.79-9.66 4.49-8.77 8.88-19.83 13.08-33.22 3.59-11.25-.3-17.92-11.64-19.98-2.71-.48-8.89-1.06-18.53-1.74-10-.66-17.92-20.82-18.55-27.74-.43-5.05-1.96-5.38-4.46-.96-10.74 18.9-23.2 38.01-37.41 57.28-9.53 12.93-20.69 21.3-33.58 25.09-1.31.37-1.6 1.14-.88 2.25 6.04 9.4 9.24 18.58 9.58 27.5.35 8.78-1.16 9.13-4.52.96-1.26-3.1-3.37-6.64-6.27-10.7-3.64-5.02-4.71-4.55-3.22 1.46 1.93 7.92 3.44 20.6 1.52 30.57-1.4 7.24-11.91 17.73-16.47 22.58-.75.79-1.38.74-1.91-.2l-.55-.97c-.06-.1-.05-.25.07-.36 6.42-7.48 8.57-16.24 6.43-26.39-7.65-36.24-43.83-44.27-75.54-42.98-15.39.61-27.06.49-35.05-.44-.4-.05-.74-.18-1.06-.41-1.43-.98-1.89-1.87-1.32-2.65.15-.22.55-.41 1.17-.53 6.58-1.63 13.3-4.53 20.24-8.76 1.3-.79 1.48-1.76.58-2.95-4.39-5.69-11.21-12.17-20.47-19.47-.92-.72-.28-2.19.84-2 8.35 1.32 25.47 3.18 28.68-7.35q9.105-29.97 11.34-38.07c2.05-7.47-1.06-11.32-9.29-11.47-6.92-.11-14.23.32-21.98 1.32a8.535 8.535 0 0 1-8.49-4.24l-9.79-17.21c-2.63-4.62-4.48-4.31-5.58.87-.85 3.84-5.74 24.12-14.69 60.73-2.65 10.95-4.14 18.6-4.48 23.03-.13 1.64-1.02 2.42-2.63 2.33l-12.14-.64c-3.65-.18-4.26 1.09-1.75 3.8 9.65 10.48 22.37 26.21 22.89 40.87.38 11.1-1.87 21.22-6.79 30.37-1.06 1.94-1.64 1.81-1.71-.41-.02-1.09.15-2.16.51-3.14.45-1.22.62-2.47.57-3.77-.61-16.36-7.14-29.86-19.62-40.38-2.38-2-3.32-1.47-2.82 1.6 2.51 15.65-7.52 32.4-16.35 44.05-6.06 7.96-7.55 7.2-4.46-2.34 8.26-25.36 1.85-47.86-19.19-67.46-2.02-1.84-6.15-4.42-12.43-7.7-10.02-5.16-20.29-8.8-25.11-15.81-3.59-5.18-4.62-10.95-3.05-17.32 4.15-16.81 15.18-22.17 28.33-34.49.99-.93 1.47-2.03 1.48-3.38 0-4.37-1.58-8.44-1.1-12.44.94-7.49 3.75-13.96 8.41-19.42 11.52-13.32 26.41-25.34 44.66-36.04 2.76-1.62 4.8-4.02 6.08-7.19 17.29-42.56 21.96-83.6 14.01-123.22-5.38-26.76-21.13-40.77-47.3-42.03-44.63-2.17-83.6 27.46-107.1 64.45-22.99 36.19-34.18 69.25-47.99 111.07-2.56 7.72-3.25 15.47 5.11 19 6.78 2.86 6.71 5.57-.17 8.11-6.62 2.43-11.27 4.3-14.02 5.54-6.47 2.95-6.21 5.1.78 6.46 15.31 2.89 30.63 7.88 45.97 15.03 5.27 2.48 4.99 3.6-.83 3.47-24.61-.63-48.13 5.85-70.56 19.4-5.78 3.52-5.31 4.91 1.37 4.19 17.37-1.83 30.75 2.75 47.56 9.98 13.99 5.98 25.62 8.71 40.19 10.54 7.63.95 7.81 2.64.47 5.03-22.71 7.4-41.04.43-73.43-4.74-4.57-.76-18.44-.14-41.64 1.79-.21.03-3.9.01-11.14-.01-6.47-.05-12.59 3.02-18.4 9.23a1168 1168 0 0 0-33.53 37.08c-.35.43-.51.89-.5 1.3 0 .41.13.71.37.89.36.3.75.35 1.17.12 13.44-7.92 24.4-11.72 32.83-11.37 29.89 1.17 53.1 13.41 69.63 36.64 1.53 2.12 1.22 2.39-.85.85-23.12-17.26-48.4-22.53-75.79-15.83-15.97 3.89-31.17 10.74-45.69 20.57-9.66 6.56-20.09 17.51-31.32 32.96-7.67 10.53-16.22 23.18-25.65 37.98-.48.78.1 1.79 1.01 1.77 45.09-.76 63.75 42.56 61.82 80.89-.36 7.06-1.21 7.09-2.54.15-1.83-9.77-5.43-19.32-10.73-28.64-12.24-21.43-33.66-29.72-57.08-23.8-2.21.57-3.31 2.99-2.26 5.01 1.76 3.42 4.63 7.08 5.09 11.46 2.24 19.94-2.25 38.1-13.42 54.54-1.24 1.86-1.72 1.67-1.46-.55 2.26-17.53 6.39-29.45-5.86-45.08-2.17-2.77-6.37-2.77-8.56 0-19.3 24.47-33.88 53.52-45.97 82.58-15.04 36.17-24.89 85.59-4.97 119.77 11.07 19.06 26.62 30.37 46.6 34 .31.05 4.21.69 11.67 1.83 6.16.96 6.19 2.14.12 3.52-15.98 3.62-31.96 2.63-47.97-2.94-15.87-5.56-24.98-20.44-31.72-36.26-1.21-2.77-2.17-2.68-2.93.19-4.29 16.48-.93 30.31 4.09 46.09 1.58 5.04.18 6.06-4.15 3.05-3.78-2.59-8.69-7.02-14.76-13.23-3.02-3.12-4.33-2.51-3.9 1.8 1.48 14.57 6.1 26.49 13.81 35.68 7.6 9.07 18.9 14.28 30.55 19.16 4.42 1.86 4.23 2.75-.54 2.7-16.17-.19-31.14-1.01-45.06-7.77-6.62-3.23-9.32-10.48-12.69-16.07-.3-.52-1.1-.48-1.35.13l-22.21 53.09c-1.3 3.13.47 6.73 3.76 7.57 16.46 4.26 30.08 13.63 40.87 28.06 2.57 3.46 1.9 4.31-2.01 2.53-12.43-5.58-30.25-6.58-40.3 4.07q-6.33 6.705-9.3 8.88c-1.4 1.02-2.38.76-3-.73l-3.45-8.49c-2.52-6.21-5.85-6.48-9.97-.86-5.49 7.5-10.58 16.75-15.31 27.77-.24.55-2.83 4.33-7.81 11.35-1.15 1.62.05 3.88 2.05 3.85 34.62-.55 64.71 8.97 90.25 28.54 6.78 5.21 6.27 6.09-1.59 2.7-34.32-14.94-71.95-14.83-112.86.39-1.11.4-1.25 1.03-.4 1.88 21.42 21.31 25.44 46.41 12.11 75.31-.16.37-.58.52-.89.37l-1.03-.52c-.24-.09-.37-.16-.35-.21 1.43-5.33 2.11-10.13 1.95-14.36-.42-13.43-5.4-22.43-15.01-26.94-7.37-3.49-13.96-2.78-19.77 2.14-2.59 2.16-5.28 7.38-8.19 15.61-10.89 30.77-23.66 62.34-38.4 94.75-1.47 3.23-.45 5.04 3.07 5.48 6.15.69 12.05 2.49 17.15 6.35 18.37 13.85 38.18 43.4 36.52 68.46-.23 3.4-.9 3.51-2.01.27-6.17-17.89-18.17-29.1-35.95-33.57-4.38-1.14-8.33.73-11.88 5.57-13.57 18.45-3.83 42.13 12.62 55.18 4.51 3.56 4.1 4.29-1.24 2.18-24.91-9.89-39.73-28.66-44.48-56.33-.69-3.89-1.79-4.04-3.33-.36l-29.16 69.75c-.51 1.21-1.17 2.32-2.01 3.35-1.31 1.58-1.66 3.06-1.05 4.46.59 1.28 1.57 1.87 2.96 1.81 7.01-.31 16.34 1.29 27.99 4.78 20.7 6.21 36.1 12.41 46.23 18.56 43.78 26.54 74.14 78.44 58.51 130.41-2.64 8.87-3.72 8.75-3.17-.4 0-.23.04-2.28.03-6.18.09-48.37-21.24-83.5-63.94-105.41-11.98-6.16-25-8.1-39.1-5.78-3.82.65-5.08 2.8-3.72 6.4 3.99 10.57 4.75 21.78 2.33 33.7-1.04 4.96-2.04 4.98-3.05-.02-1.64-8.13-5.72-16.03-12.21-23.8-7.1-8.52-14.6-11.02-22.46-7.61-4.1 1.78-8.93 6.46-14.49 14.09-6.21 8.5-10.38 14.19-12.54 17.03-1 1.31-.38 3.21 1.15 3.72 8.66 2.85 15.95 8.14 21.94 15.91 1.19 1.53.82 2.02-1.01 1.45-13.31-4.07-26.2-1.8-38.65 6.81-1.19.82-1.42 1.87-.68 3.1.85 1.5 2.3 2.1 4.34 1.81 8.51-1.07 15.79-1.44 21.13 5.92 5.2 7.12 8.2 14.57 9.04 22.28.76 6.75-.67 7.24-4.2 1.43-15.96-26.03-38.17-19.93-52.47 2.75a2.598 2.598 0 0 0 1.7 3.96c16.43 3.08 31.6 8.3 45.52 15.7 6.47 3.45 12.38 9.94 17.67 19.49 16.03 28.89 14.57 62.72 13.15 95.89-.54 12.64-2.25 12.79-5.17.46-1.65-7.11-4.47-21.44-8.38-42.96-5.11-27.98-20.83-55.61-49.71-61.32-5.78-1.18-6.46.22-2 4.08 10.38 9.1 15.27 21.09 14.62 36.05-.35 7.24-2.35 16.02-6.04 26.35-.06.13-.15.22-.29.3l-2.09 1.19c-.52.3-.69.16-.51-.4 3.42-12.67.66-24.31-8.34-34.88-8.89-10.45-19.46-15.67-31.66-15.68-4.37 0-4.9 1.41-1.55 4.24 4.77 4.01 6.28 9.59 5.19 15.83-3.46 19.96-11.1 37.52-22.95 52.68-2.57 3.26-3.16 2.95-1.75-.98 5.65-16.19 9.91-25.61-2.58-40.04-2.9-3.32-8.14-3.15-10.78.38l-42.94 57.25c-.5.65-.04 1.63.79 1.62 12.46.14 31.71 4.6 36.79 17.5 8.16 20.81 7.19 44.83 5.38 70.02-.19 2.18.47 8.99 1.94 20.39.15 1.16-.36 1.95-1.51 2.28-.32.09-.69.16-1.14.19-1.07.06-1.9-.35-2.52-1.19-3.46-5.03-5.69-10.48-6.63-16.34-2.11-12.93-4.29-27.52-6.56-43.72-.79-5.76-4.45-12.1-11.02-19.04-2.79-2.97-7.35-3.37-10.53-.96-.48.37-.41 1.38.2 3.11 1.7 4.6 3.04 9.22 4.1 13.91.97 4.37-.28 5.17-3.78 2.33-7.15-5.78-12.38-11-19.48-12.39-6.79-1.34-12.7.97-17.79 6.9-16.13 18.89-32.58 41.5-49.3 67.91-.61.95.08 2.16 1.19 2.09 21.77-1.3 39.56 14.35 40.89 36.43.08 1.43-1.56 2.36-2.71 1.54-4.48-3.11-9.65-4.91-15.57-5.36-4.28-.33-7.74 3.39-7.13 7.6 1.98 13.74-.58 27.85-7.58 42.33-3.35 6.97-4.1 6.71-2.3-.81 2.94-12.3.75-23.35-6.62-33.14-11.37-15.21-26.52-8.19-34.47 5.58-14.63 25.4-25.6 50.69-32.93 75.9-5.4 18.58 9.57 32.11 27.19 36.21 19.83 4.68 37.31 1.27 52.49-10.22 3.37-2.56 3.86-2.11 1.47 1.37-18.33 26.59-42.84 36.9-73.5 30.97-1.2-.24-2.23.85-1.97 2.04 2.5 10.45 12.11 19.34 21.01 25.83 3.86 2.82 3.39 4.1-1.38 3.73-17.68-1.31-30.93-10.11-39.72-26.37-1.65-3.06-2.84-2.89-3.5.56-4.59 23.88-10.02 56.15-2.31 74.72 8.16 19.52 31.94 29.04 53.4 22.59 5.38-1.63 5.86-.71 1.4 2.7-11.65 8.88-25.14 13.57-40.55 14.06-1.41.02-1.9.71-1.45 2.07 1.7 4.92 4.97 10.19 7.34 15.89 3.98 9.42 10.45 16.1 19.46 20.04 2.09.93 2.02 1.52-.28 1.77-5.86.62-12.67-.43-19.81-1.57-6.79-1.1-11.97-5.66-15.55-13.66-1.59-3.6-4.61-9.07-9.1-16.4-2.06-3.38-3.19-3.11-3.32.88-.72 21.63 2.23 41.53 8.84 59.77 6.91 19.17 31.42 31.04 51.57 36.6 1.85.51 2.43 2.9.94 4.16-6.61 5.69-23.25 21.1-18.28 30.79 7.05 13.84 16.87 26.25 29.45 37.27 1.07.91 2.53 1.14 3.79.6 2.15-.9 3.95-2.11 5.34-3.64 1.99-2.24 3.86-2.11 5.56.38 6.62 9.77 14.52 15.57 23.81 17.42 10.01 1.99 20.65 3.21 31.91 3.75 6.34.3 6.67 1.86.99 4.73-12.88 6.41-24.65 8.92-35.33 7.54-6.91-.9-7.67.91-2.4 5.41 25.4 21.58 54.03 39.71 85.81 54.4 9.99 4.62 19.51 4.04 28.59-1.77 12.1-7.76 20.41-17.51 24.94-29.29 2.54-6.69 4.46-10.68 5.7-11.99 1.78-1.8 2.61-1.48 2.47.94l-3.22 61.06c-.1 1.76.92 3.39 2.53 4.13 18.86 8.64 37.29 14.58 55.3 17.92 6.39 1.2 9.35-1.45 8.92-7.93-.23-3.23-1.24-7.03-3.12-11.39-.55-1.3-.2-1.64 1.06-.97 17.8 9.52 36.4 8.65 55.83-2.59 5.09-2.94 10.79-6.83 17.08-11.56 2.29-1.72 2.96-1.27 1.98 1.45-5.62 15.76-13.64 27.87-24 36.35-3.79 3.12-3.24 4.74 1.68 4.89 28.02.95 54.29-5.53 78.85-19.47 13.16-7.44 15.35-38.28 14.95-50.71-.35-10.57-.35-16.79-.07-18.65.23-1.46.7-1.6 1.54-.37 3.51 5.28 9.98 17.29 19.42 36.07 8.91 17.76 33.29 13.69 48.27 7.19 17.89-7.79 34-16.36 48.4-25.75 10.68-6.95 13.4-30.96 12.97-42.4-.09-2.66.7-2.98 2.39-.9 10.09 12.16 18.94 16.05 26.64 11.72 8.73-4.97 22.13-16.27 30.23-26.22 4.37-5.34 1.67-10.89-8.15-16.58-4.6-2.67-4.25-4.48.98-5.39 10.17-1.78 17.88-8.61 23.14-20.48 4.77-10.86 7.87-20.31 9.28-28.34.2-1.26 1.95-1.43 2.41-.22 4.04 10.91 5.41 19.61 4 26.12-1.99 9.37.21 10.56 6.59 3.57 18.18-19.97 35.66-42.8 52.44-68.55 10.66-16.37 16.14-33.67-1.96-46.38-1.06-.73-.96-1.2.3-1.5 17.54-4.04 27.92-14.42 31.18-31.18 1.03-5.14 2.51-5.29 4.49-.44 1.87 4.5 2.91 8.75 3.13 12.62.32 5.34 1.68 5.62 4.13.87 6.05-11.77 13.86-26.67 23.41-44.67 1.33-2.51 3.15-7.64 5.41-15.41 2.94-9.96.26-19.11-8.07-27.44-1.5-1.5-1.25-2.6.7-3.39 10.05-4.02 16.66-11.73 19.86-23.08 3.62-12.88 4.11-25.21 1.45-37-2.45-10.94-.95-11.61 4.53-1.98 1.8 3.07 3.23 8.51 4.35 16.3 1.57 10.93 2.15 20.92 1.64 29.9-.24 4.51.65 4.78 2.73.75l23.97-47.33c1.67-3.3 1.78-7.23.27-10.6-1.06-2.34-5.55-12.35-13.47-29.98-2.02-4.51-4.49-8.21-7.46-11.08-1.11-1.07-.92-1.87.54-2.38 1.04-.36 2.37-.2 3.97.59 12.75 6.23 22.67 15.5 29.73 27.82.14.24.48.28.66.04l18.22-24.27c.47-.63.54-1.32.27-2.04-13.86-33.81-33.97-61.39-60.29-82.73-3.86-3.14-3.53-3.7 1.04-1.65 21.27 9.48 39.63 24.11 55.08 43.9 2.73 3.51 8.14 3.38 10.68-.32 7.2-10.4 7.91-19.74 2.22-27.96-5.03-7.31-3.75-8.36 3.93-3.2 6.23 4.23 12.87 9.2 20.01 14.94 1.44 1.16 3.54.88 4.64-.57 14.3-18.63 23.48-30.48 27.5-35.53 12.49-15.67 16.14-33.26 10.95-52.81-.47-1.71.15-2.25 1.78-1.56l7.2 3.03c1.89.81 3.74.68 5.57-.32 13.38-7.29 21.39-17.97 24.09-32.07.77-4.07 2.19-4.33 4.24-.71l4.43 7.79c1.9 3.34 6.65 3.44 8.72.19 11.16-17.67 13.97-36.99 8.4-57.94-3.66-13.79-7.67-25.37-12.06-34.7-3.46-7.37-2.53-8 2.82-1.84 8.17 9.43 14.21 18.98 18.14 28.57.31.79 4.1 9.31 11.36 25.62.61 1.31 1.37 1.43 2.31.34l27.37-30.76c1.06-1.2 1.18-2.46.28-3.79-19.17-29.41-32.6-61.9-40.33-97.4-.12-.53 0-.88.45-.99l.02.03c.44-.11.75.03.92.49 12.77 31.25 32.85 56.92 60.32 76.96.95.7 1.96.77 3 .18l26.8-15.25c1.32-.75 1.45-1.65.37-2.74-8.01-8.01-12.9-14.01-14.75-18.07-3.55-7.78-4.09-16.49-1.6-26.1.46-1.78 1.26-1.91 2.39-.49 16.76 21.44 40.04 21.35 64.81 11.17 15.07-6.18 27.72-12.19 37.89-18.02 4.28-2.43 3.98-3.37-.9-2.8-21.24 2.47-42.37-2.31-63.44-14.34-5.68-3.26-9.21-6.08-10.5-8.43-1.01-1.86-.61-2.28 1.29-1.29 36.21 19.16 76.23 15.8 113.75 4.58 6.08-1.85 5.95-2.88-.39-3.19-11.62-.61-22.92-1.54-32.17-4.2-38.93-11.31-58.29-38.62-58.06-81.97 0-.32.11-.62.33-.88.71-.77 1.33-.9 1.88-.33.07.05.11.12.14.24 6.44 27.49 26.11 53.9 54.45 59.13 12.87 2.39 26.39 2.79 40.66 1.25 1.42-.17 2.31-1.68 1.7-2.99-4.33-9.23-6.79-17.26-7.42-24.13-.54-6.04 1.23-6.82 5.3-2.33 10.84 12.01 22.92 19.41 40 18.52 14.9-.75 30.54-5.05 46.99-12.93 79.3-38.09 125.85-116.9 122.12-204.34-.18-4.27.62-4.49 2.49-.64 8.56 17.96 11.14 39.64 11.91 59.27.92 22.08-3.24 43.63-12.43 64.69-2.35 5.34-1.41 6.01 2.83 1.98 18.98-18.16 30.15-28.94 33.61-32.33 22.09-21.91 48.48-51.57 38.52-84.6-2.9-9.63-4.45-14.77-4.65-15.44-.41-1.61.08-2.12 1.42-1.55 6.8 2.89 12.99.34 18.63-7.61 9.41-13.31 11.77-28.01 7.1-44.13-.26-.86-.01-1.88.64-2.76.22-.26.57-.37 1.08-.29.63.06 1.1.39 1.41.95 9.21 15.7 14.33 32.21 15.33 49.59.12 2.14.77 2.32 1.98.57 7.35-10.62 15.62-24.72 24.76-42.3 9.27-17.75 12.09-37.95 8.53-60.63-3.3-21-15.88-49.74-37.69-55.23-4.34-1.07-4.28-1.94.15-2.48 10.5-1.37 20.31-.05 29.47 3.99 8.04 3.53 15.87 13.01 21.15 18.8 1.16 1.23 3.22.56 3.36-1.13.59-6.96-.95-13.4-4.57-19.35-15.86-26.09-38.68-42.33-65.59-59.05-7.71-4.82-7.23-5.92 1.45-3.27 16.12 4.87 32.63 10.84 49.62 17.97 2.13.91 4.18 1.35 6.14 1.34 2-.04 4.08-.34 6.2-.91 8.65-2.35 15.56-4.2 20.71-5.57 5.88-1.55 4.58-3.2-3.87-4.93-5.42-1.11-10.42-2.22-15.98-5.27-28.17-15.45-45.53-39.49-52-72.12-.4-2.16-1.98-4.21-4.72-6.2-17.03-12.22-33.79-31.63-37.37-52.74-1.34-7.94-2.11-12.19-2.23-12.81-.46-1.86-1.12-2.13-2.05-.77-4.39 6.36-8.02 13.08-10.9 20.15-2.06 5.04-2.99 12.29-2.86 21.83.16 11.69-.71 20.51-2.66 26.46-.54 1.64-1.09 1.64-1.7 0-2.36-6.57-6.98-15.26-13.86-26.13-1.03-1.57-2.22-2.28-3.58-2.01-1.43.31-1.89 1.12-1.42 2.51 4.34 12.4 6.75 24.88 7.28 37.37.15 3.09-.78 3.48-2.76 1.06-7.07-8.54-15.08-15.67-24.06-21.42-4.25-2.69-8.13-4.26-11.7-4.71-1.35-.2-1.84.4-1.43 1.69l4.71 15.73c3.47 11.6 2.24 12.03-3.69 1.27-7.13-12.93-20.52-25.05-40.14-36.48-23.39-13.52-50.35-22.8-80.86-27.81-1.63-.27-2.76 1.62-1.71 2.9 4.37 5.34 7.65 10.93 8.59 17.11 2.32 15.8-.19 30.81-7.54 44.98-.57 1.11-2.22.62-2.15-.62 1.28-16.1-2.75-30.88-12.17-44.35-8.79-12.53-22.1-18.95-39.94-19.15-17.25-.22-36.29 3.44-57.18 10.96-39.38 14.17-71.07 37.5-95.03 70.05-1.52 2.11-1.09 2.69 1.37 1.75 26.07-9.91 50.8.87 68.85 20.38 2.85 3.07 2.34 3.87-1.59 2.38-35.47-13.64-80.05.54-98.4 34.45-2.75 5.11-6.71 14.5-11.8 28.11-3.79 10.16-6.81 19.89-9.06 29.13-.98 4.01.13 4.67 3.22 1.94 17.5-15.43 45.14-10.36 62.8 1.17 1.84 1.21 1.68 1.9-.53 2.05-6.03.4-12.33-.16-19 1.06-40.74 7.58-60 31.98-57.76 73.19.41 7.27 3 19.74 7.83 37.38.4 1.43.17 1.51-.67.29Z"/><path fill="#28292a" d="M1211.24 321.66c20.51 11.62 45.22 22.69 74.14 33.15 11.64 4.19 20.51 6.69 26.63 7.49 1.35.2 2.61-.1 3.72-.83 7.7-4.98 22.62-14.35 44.74-28.13 41.01-25.55 65.54-90.73 71.63-136.49 7.28-54.58-30.64-72.45-76.94-68.24-16.87 1.5-34.13 5.61-51.79 12.35-50.92 19.45-81.3 56.16-91.16 110.09-3.38 18.4-4.89 39.37-4.53 62.96.08 3.78 1.25 6.33 3.56 7.64Z"/><path fill="#fff" d="M1030.23 1191.55c-1.01-8.4-4-29.43-8.93-63.17-7.75-52.52-34.67-91.65-80.71-117.32-3.08-1.7-3.74-1-2.02 2.03 31.64 56.74 46.89 119.76 54.63 184.16 1.04 8.38 4 29.43 8.97 63.15 7.75 52.52 34.67 91.65 80.71 117.32 3.05 1.72 3.71 1.02 2.02-2.03-31.64-56.74-46.89-119.76-54.67-184.14M890.34 1345.25c.34 4.73.69 7.52 1.01 8.49q1.005 2.745 1.83.06c2.86-9.04 4.51-16.1 4.99-21.16 4.9-53.74-1.11-106.69-18.09-158.93-6.06-18.74-13.55-40.39-22.5-64.93-11.08-30.47-21.48-64.36-31.22-101.62-8.01-30.65-12.22-60.29-12.65-88.95-.18-11.72-1.86-11.92-4.98-.66-15.31 55.01-17.07 110.64-5.27 166.89 5.76 27.42 13.41 53.9 22.96 79.49q39.96 106.98 48.96 130.92c9.32 24.79 14.33 41.6 14.96 50.39ZM758.28 1182.97c11.79 49.35 12.02 101.59 16.68 148.92 7.44 75.34 39.78 138.49 97 189.46 20.53 18.28 43.17 32.5 67.95 42.66 3.79 1.57 4.24.9 1.27-1.97-12.42-12.03-23.95-23.56-34.66-34.63-50.55-52.19-84.49-114.43-101.87-186.69-10.22-42.55-19.9-80.67-29-114.29-3.17-11.72-7.68-22.88-11.5-34.37-1.07-3.26-2.78-6.43-5.08-9.49-.85-1.08-1.09-.94-.78.4ZM657.48 1104.75c-13.17 38.33-17.16 79.67-11.98 124.04 4.52 38.76 12.64 74.13 24.33 106.09 14.64 40.13 36.6 71.68 69.19 96.67 4.36 3.37 5.37 2.56 3.02-2.46-7.25-15.25-13.6-31.75-19.1-49.42-16.63-53.4-27.84-89.69-33.67-108.83-15.82-51.98-25.44-101.73-28.88-149.25-.46-6.14.78-11.4.06-16.56-.59-4.27-1.56-4.36-2.97-.29ZM621.41 1411.86c-.7-1.72-1.21-2.77-1.46-3.13-1.83-2.32-2.55-2.05-2.25.82 4.21 41.28 19.06 78.62 44.45 111.99 31.33 41.22 70.2 79.53 99.43 115.45 3.9 4.82 4.9 4.25 2.97-1.65-13.64-41.44-34.56-77.07-62.92-110.32-19.33-22.73-40.78-46.52-55.68-69.29-11.77-18.02-19.96-32.64-24.56-43.88ZM715.74 1689.23c-24.31-7.7-44.09-21.99-59.38-42.88-.41-.55-.9-.69-1.53-.42-.33.14-.59.43-.78.81a.94.94 0 0 0 0 .41c3.99 10.66 8.1 18.45 12.31 23.33q21.75 25.245 52.59 38.55c14.21 6.13 30.51 12.69 48.83 19.66 7.2 2.71 15.36 7.74 24.47 15.02 11.72 9.44 24.17 23.39 37.29 41.83.66.91 1.54 1.33 2.67 1.29.41 0 .8-.13 1.18-.35.5-.33.64-.73.45-1.31-10.59-32.04-31.29-62.92-61.5-79.92-16.39-9.22-40.5-10.92-56.61-16.02ZM484.45 1632.01c8.33 67.7 67.66 109.83 122.54 143.68 16.75 10.35 28.67 19.08 35.75 26.19 25.96 26.05 45.26 60.86 57.49 93.43.48 1.25 2.17 1.39 2.79.21.64-1.15.87-2.43.75-3.78-3.35-32.66-13.62-64.69-30.78-96.07-9.88-18.08-21.36-32.12-34.44-42.07-21.24-16.22-58.61-27.3-81.08-41.3-26.36-16.39-47.86-38.16-61.98-65.24-3.9-7.49-6.72-12.79-8.47-15.85-2.26-3.96-3.12-3.7-2.57.82ZM684.98 2061.48c-7.52-2.86-17.49-8.18-29.97-16.03-24.3-15.21-41.87-36.14-52.75-62.77-4.44-10.87-12.6-31.77-24.5-62.78-5.56-14.46-15.45-28.12-29.61-40.95-6.82-6.15-20.52-13.82-41.06-22.98-51.54-23.04-94.09-48.63-115.04-103.9-2.52-6.62-3.61-6.42-3.3.68.89 19.19 6.61 37.25 17.12 54.18 14.26 23.04 33.57 43.63 57.93 61.84 22.36 16.73 40.44 30.05 54.19 39.99 26.3 19.04 42.82 64.09 55.69 86.45 28.07 48.92 69.6 73.7 124.58 74.31 1.26.02 2.44-.33 3.45-1.05 1.35-.95 1.22-1.66-.36-2.09-8.71-2.45-14.19-4.07-16.37-4.91ZM327.65 1864.28c6.7 27.07 26.66 46.04 48.62 61.66 32.02 22.79 68.03 29.22 91.69 58.97 12.16 15.31 22.07 31.02 29.78 47.07.58 1.19 2.22 1.31 2.95.25.48-.69.58-1.57.4-2.62-8-38.57-32.18-92.79-73.12-104.15-15.04-4.19-27.01-7.92-35.95-11.25-25.74-9.65-46.19-26.73-61.32-51.22-3.74-6.02-4.76-5.62-3.05 1.27ZM304.68 1971.61c-12.43-4.29-23.75-13.5-34-27.64-.56-.74-1.74-.39-1.8.56l-.14 2.1a7.6 7.6 0 0 0 .64 3.32c12.83 27.81 37.02 39.73 64.98 50.46 8.89 3.41 15.1 6.32 18.68 8.65 12.07 7.95 21.03 19.01 30.07 31.49 6.23 8.6 7.92 7.78 5.07-2.42-2.42-8.61-6.6-17.83-12.54-27.7-9.67-15.94-22.91-26.03-39.75-30.22-14.83-3.66-25.22-6.54-31.22-8.6Z"/></svg>