<svg xmlns="http://www.w3.org/2000/svg" xmlns:xlink="http://www.w3.org/1999/xlink" viewBox="0 0 593.32 121.58"><defs><linearGradient id="a" x1="3.31" x2="88.47" y1="71.17" y2="71.17" gradientUnits="userSpaceOnUse"><stop offset="0" stop-color="#2ea3f2"/><stop offset="1" stop-color="#26d1bd"/></linearGradient><linearGradient xlink:href="#a" id="b" x1="505.4" x2="590.56" y1="59.95" y2="59.95"/></defs><path fill="url(#a)" d="M3.31 78.6h23.7c.4 1.22 1.59 2.24 3.56 3.08s4.61 1.48 7.94 1.91 7.19.65 11.59.65 7.77-.13 10.29-.39 4.3-.72 5.34-1.39c1.04-.66 1.56-1.58 1.56-2.73s-.84-1.95-2.52-2.56q-2.52-.915-8.94-1.26c-4.28-.23-10.3-.35-18.06-.35-5.79 0-10.78-.27-14.97-.82-4.2-.55-7.64-1.42-10.33-2.6-2.69-1.19-4.67-2.69-5.95-4.51-1.27-1.82-1.91-4.01-1.91-6.55q0-6.6 4.47-10.89c2.98-2.86 7.49-5 13.54-6.42s13.61-2.13 22.7-2.13c13.31 0 23.48 1.93 30.51 5.77 7.03 3.85 10.55 9.39 10.55 16.62H63.9c-.29-1.91-2.08-3.37-5.38-4.38s-7.99-1.52-14.06-1.52-10.49.35-13.41 1.04-4.38 1.88-4.38 3.56c0 .87.4 1.56 1.22 2.08.81.52 2.21.94 4.21 1.26s4.82.54 8.46.65c3.65.12 8.28.17 13.89.17 6.19 0 11.46.3 15.8.91s7.86 1.52 10.55 2.74c2.69 1.21 4.64 2.76 5.86 4.64s1.82 4.1 1.82 6.64c0 4.4-1.39 7.99-4.17 10.76s-7.18 4.83-13.19 6.16c-6.02 1.33-13.89 2-23.61 2q-8.25 0-15.15-.96c-4.6-.64-8.7-1.58-12.28-2.82-3.59-1.24-6.63-2.78-9.11-4.6-2.49-1.82-4.38-3.88-5.69-6.16-1.3-2.29-1.95-4.82-1.95-7.6Z"/><path fill="#fff" d="M127.35 100.3c-6.25 0-11.81-.84-16.67-2.52s-8.7-4.19-11.5-7.55c-2.81-3.36-4.21-7.52-4.21-12.5s1.4-8.8 4.21-12.15c2.81-3.36 6.64-5.92 11.5-7.68s10.42-2.65 16.67-2.65c5.21 0 9.9.54 14.06 1.61 4.17 1.07 7.73 2.6 10.68 4.6s5.21 4.37 6.77 7.12 2.34 5.8 2.34 9.16-.78 6.42-2.34 9.2-3.82 5.17-6.77 7.16-6.51 3.53-10.68 4.6-8.85 1.61-14.06 1.61Zm7.82-13.28c4.4 0 8.43-.26 12.11-.78 3.67-.52 6.63-1.46 8.85-2.82 2.23-1.36 3.34-3.26 3.34-5.69s-1.11-4.33-3.34-5.69q-3.345-2.04-8.85-2.82c-3.68-.52-7.71-.78-12.11-.78-5.9 0-10.48.78-13.72 2.34s-4.86 3.88-4.86 6.95c0 2.08.72 3.81 2.17 5.16 1.45 1.36 3.56 2.39 6.34 3.08s6.13 1.04 10.07 1.04Zm45.14-30.56v59.9h-20.83v-43.4l1.22-16.49h19.62ZM250.01 77.03l.17 4.17c-.17 1.22-.74 2.63-1.69 4.25s-2.27 3.3-3.95 5.03c-1.68 1.74-3.73 3.34-6.16 4.82s-5.21 2.68-8.33 3.6c-3.13.93-6.6 1.39-10.42 1.39s-7.44-.39-10.85-1.17c-3.42-.78-6.45-2.07-9.11-3.86s-4.75-4.21-6.25-7.25c-1.51-3.04-2.26-6.84-2.26-11.42V56.45h20.83v17.97c0 3.18.53 5.64 1.61 7.38 1.07 1.74 2.76 2.94 5.08 3.6 2.31.67 5.3 1 8.94 1 3.41 0 6.58-.51 9.51-1.52 2.92-1.01 5.5-2.24 7.73-3.69s3.95-2.83 5.16-4.17ZM269.98 99h-20.83V56.46h20.83zM309.3 100.21c-6.25 0-11.81-.88-16.67-2.65s-8.7-4.33-11.5-7.68c-2.81-3.36-4.21-7.41-4.21-12.15s1.4-9.14 4.21-12.5 6.64-5.87 11.5-7.55 10.42-2.52 16.67-2.52c6.95 0 12.95.94 18.01 2.82s8.97 4.51 11.72 7.9 4.12 7.33 4.12 11.85c0 3.36-.78 6.41-2.34 9.16s-3.82 5.12-6.77 7.12-6.51 3.53-10.68 4.6-8.85 1.61-14.06 1.61Zm7.81-13.19c4.4 0 8.43-.27 12.11-.82 3.67-.55 6.63-1.49 8.85-2.82 2.23-1.33 3.34-3.21 3.34-5.64s-1.11-4.4-3.34-5.73-5.18-2.26-8.85-2.78c-3.68-.52-7.71-.78-12.11-.78-5.9 0-10.48.77-13.72 2.3q-4.86 2.295-4.86 6.99c0 2.03.72 3.73 2.17 5.12s3.56 2.43 6.34 3.13 6.13 1.04 10.07 1.04Zm24.31-30.56h20.83V99h-19.62c-.41-2.66-.71-5.24-.91-7.73s-.3-5.41-.3-8.77zM367.9 56.46h51.04v13.02H367.9zM383 43.44h20.83V99H383zM503.92 80.51c0 4.17-1.3 7.73-3.91 10.68-2.6 2.95-6.71 5.21-12.33 6.77-5.61 1.56-12.91 2.34-21.88 2.34s-16.59-.72-22.87-2.17-11.05-3.82-14.32-7.12-4.9-7.7-4.9-13.19 1.63-9.91 4.9-13.24 8.04-5.73 14.32-7.21 13.9-2.21 22.87-2.21 16.23.78 21.79 2.34 9.64 3.82 12.24 6.77q3.9 4.425 3.99 10.59h-19.1c-.93-2.26-3.01-4.01-6.25-5.25s-7.47-1.87-12.67-1.87c-4.22 0-7.9.3-11.02.91-3.13.61-5.54 1.64-7.25 3.08-1.71 1.45-2.56 3.47-2.56 6.08s.84 4.54 2.52 5.99 4.08 2.46 7.21 3.04 6.83.87 11.11.87c5.21 0 9.45-.62 12.72-1.87 3.27-1.24 5.37-3.02 6.29-5.34h19.1Z"/><path fill="url(#b)" d="m531.68 75.42.02.4q.735-.42 1.68-.84c-.56.17-1.13.31-1.7.44m56.62-10.19c-1.5-2.49-3.51-4.47-6.03-5.95s-5.37-2.53-8.55-3.17a51 51 0 0 0-9.9-.95q-8.16 0-14.1 2.04c-.44.15-.88.31-1.3.46-.14.06-.29.11-.43.17-.38.14-.75.29-1.12.44-2.72 1.13-5.05 2.42-7.01 3.88-2.6 1.93-4.58 3.79-5.94 5.55-1.36 1.77-2.16 3.08-2.39 3.95l.11 2.63c.17-.06.33-.1.5-.14 1.15-.28 2.39-.55 3.4-.93.8-.31 1.4-.59 1.81-.84.07-.04.11-.06.12-.07.12-.03.13-.01.06.08-.67.75-1.44 1.37-2.3 1.84.44-.16.9-.33 1.38-.49 2.05-.69 4.37-1.28 6.94-1.77.5-.1 1.01-.19 1.52-.26 2.09-.32 4.23-.48 6.43-.48 4.8 0 8.52.45 11.15 1.34 2.63.9 4.47 2.25 5.51 4.04s1.56 3.99 1.56 6.6V99h20.84V74.51c0-3.7-.75-6.79-2.26-9.28m-50.71 3.53c-1.41.95-2.85 1.46-4.48 1.5-.22.01-.23-.04-.04-.15q.885-.48 1.77-1.14c1.77-1.33 2.98-2.24 3.61-2.72 1.72-1.3 3.19-2.68 4.41-4.13.16-.19.24-.39.38-.54.12-.12.15-.1.1.06-.46 1.54-1.3 2.97-2.5 4.28-1.05 1.14-2.13 2.09-3.25 2.84m-30.54-50.34c-.49-.17-.96-.14-1.41.1-.07.04-.16-.02-.15-.1.19-1.43.63-2.9 1.39-4.05.98-1.49 2.35-2.6 4.1-3.33.97-.4 1.95-.56 2.93-.46 2.21.22 3.86 2.37 4.83 4.29 1.27 2.52 2.03 5.3 2.29 8.37.1 1.12.12 2.19-.36 3.22-1.46 3.15-4.4 5.42-7.88 5.55-.91.03-1.71-.12-2.4-.46-.81-.39-.68-1.02-.44-1.74q.27-.81.84-1.44c.23-.26.2-.3-.1-.13-.78.45-1.37 1.18-1.79 2.18q-.045.105-.09 0c-.14-.25-.37-.62-.68-1.09-.28-.44-.48-.82-.58-1.14-.47-1.49-.1-2.69.55-4.1.07-.16.05-.18-.07-.05-.54.58-.89 1.23-1.05 1.93-.06.25-.1.44-.13.55-.02.07-.04.07-.07 0-.39-.98-.72-1.97-.97-2.96-.32-1.29-.47-2.51-.43-3.67.03-.83.86-1.26 1.65-1.43.07-.02.07-.03 0-.06Zm14.85-3.01c-.98-1.2-1.74-2.47-2.28-3.8-.54-1.35-.55-2.78.67-3.74 1.06-.83 2.21-1.38 3.45-1.64.84-.18 1.55-.18 2.13-.02.76.22 1.37.66 1.83 1.33.59.85.93 1.8 1.01 2.83.16 1.94-.51 3.5-2.02 4.69-1.13.88-2.44 1.26-3.95 1.12-.24-.02-.66 0-.96.03-.21.02-.24-.05-.09-.19.12-.12.2-.28.24-.46 0-.06 0-.1-.04-.15Zm10.17 3.45s.05-.09.02-.13c-.39-.61-.65-1.04-.78-1.3-1.24-2.46-1.33-4.93-.27-7.43.18-.42.47-.82.88-1.2.65-.61 1.46-.71 2.28-.43.44.15.82.34 1.14.56 1.5 1.04 2.78 2.88 3.07 4.73.51 3.2-1.93 6.41-5.29 6.26-.67-.03-1.35-.17-2.04-.41-.17-.06-.17-.12 0-.17.38-.12.71-.28.98-.48Zm18.88 10.37c.35.08.51-.19.6-.49.53-1.67.94-3 1.05-4.7.1-1.73-.46-3.59-1.95-4.56-.87-.57-1.7-.49-2.5.25-1.18 1.09-1.98 2.52-2.42 4.29a.58.58 0 0 0 .03.37c.34.77.54 1.51.6 2.2.02.29-.04.56-.18.82-.08.14-.23.24-.33.38-.03.04-.04.09-.03.14.14.7.37 1.13.11 1.77-.1.24-.27.4-.5.49-.32.11-.74-.01-1.18-.08-.28-.04-.47-.05-.58-.04-1.13.14-1.86.72-2.19 1.72-.12.38-.18.37-.19-.02-.02-.58.05-1.36.5-1.8.08-.09.07-.13-.06-.12-.64.05-1.17.33-1.57.84a.4.4 0 0 0-.07.14c-.01.04-.03.08-.06.11q-.075.105-.06-.03c.05-.4.22-.78.49-1.13.36-.46 1.13-.67 1.69-.78.14-.03.15-.09.03-.17l-.41-.26c-.05-.03-.06-.08-.03-.13.09-.16.23-.44.39-.85.57-1.39.88-2.15.95-2.3.08-.19.03-.24-.16-.15l-.72.32c-.12.06-.27.03-.37-.06-.23-.21-.45-.4-.68-.55-.27-.19-.46-.14-.56.15-.08.21-.26.7-.53 1.49-.14.41.46.75.76.9.04.02.02.08-.02.09-.47 0-.84.06-1.11.15-.06.01-.08.05-.05.1.12.3.27.55.44.76.02.02.03.03.03.04 0 .04-.04.06-.11.06-.01 0-.03-.01-.04-.02-.28-.15-.66-.42-1.14-.8-.99-.78-2.34-1.36-3.43-.37-.31.27-.44.61-.41 1s-.04.03-.04.03c-.04.02-.07 0-.07-.04-.03-.26-.13-.85 0-1.11.17-.37.51-.74.76-.95.18-.16.16-.2-.07-.12-.19.06-.34.13-.45.2-.3.18-.34.14-.13-.14.22-.28.54-.5.95-.66.05-.02.06-.05.02-.09-.32-.43-.49-.96-.49-1.59-.01-.95.03-1.86.13-2.72.02-.2-.04-.22-.17-.07-.18.21-.9.67-1.24.46-.33-.2-.54-.33-.64-.38-.41-.19-.69-.07-.84.38-.17.53-.29.98-.35 1.37-.06.36.06.61.35.73.24.1.48.18.71.25.05.02.05.09 0 .11-.36.12-.68.25-.97.38-.21.1-.23.22-.24.45-.02.49.02.95.12 1.37.03.13-.01.16-.12.08-.4-.28-1.06-.8-1.59-1.11-.5-.29-.91-.55-1.39-.97-.36-.32-.65-.55-.86-.7-.14-.09-.12-.14.04-.15.35-.01.72.05 1.11.19.21.07.26.02.14-.18-.3-.51-.68-1.29-1.14-2.36-.6-1.41-.68-3.07-1.6-4.34-.03-.04-.1-.03-.11.02-.19.66-.49 1.47-1.25 1.64-.12.03-.22.04-.28.03-.8-.11-1.32-.19-1.57-.22a.116.116 0 0 0-.13.13c.08.88.33 1.59 1.16 2.03q1.035.555 1.08.57c.09.05.08.08-.01.09-.39.04-.76.12-1.14.24a.2.2 0 0 0-.14.23q.195.975.27 1.77c.02.12 0 .38-.08.77-.01.06.01.07.06.04.42-.26.8-.43 1.14-.5.35-.08.39 0 .11.23-.35.29-.75.72-1.2 1.3-.12.15-.08.18.1.09.03-.02.22-.12.56-.31 1.64-.9 3.03-.43 4.19.91.06.06.08.1.08.12-.01.07-.06.12-.1.1a8 8 0 0 0-1.01-.55c-1.13-.52-2.2-.36-3.2.49-.2.17-.17.21.07.11 1.12-.42 2.04-.1 2.76.94.13.19.1.22-.09.1-.41-.28-.86-.44-1.41-.4-1.49.09-2.65.72-3.48 1.88a66 66 0 0 1-2.93 3.79c-.04.05-.03.06.03.05.46-.12 1.06-.25 1.8-.38.18-.04.33-.08.43-.14.28-.15.31-.11.08.12-.71.71-1.46 1.13-2.23 1.27-.47.09-.48.18-.01.28 2.66.58 5.11 1.44 7.33 3.03q1.485 1.065 2.43 2.64c.56.93 1.08 1.93 1.57 3 .55 1.18.93 2.39 1.14 3.62 0 .02 0 .03-.02.04l-.04.03h-.01a8.2 8.2 0 0 0-1.74-3.12c-.02-.02-.06-.01-.07.02-.21 1.88-.71 3.68-1.5 5.38a10.3 10.3 0 0 1-3.38 4.13c-.22.16-.5.31-.84.43-.02.01-.03.01-.04.01.01-.02.01-.03.02-.03.57-.46.94-.8 1.13-1.02 1.03-1.28.98-2.51-.16-3.7-.18-.2-.4-.33-.58-.48-.07-.06-.06-.08.03-.08.83.04 1.84.52 2.04 1.42.04.16.09.17.15.02.15-.35.27-.74.39-1.15.15-.56.24-.95.27-1.18.2-1.52-.9-3.01-2.36-3.4-.16-.04-.16-.08 0-.11 1.04-.21 2.09.02 2.69.94.06.09.09.08.09-.02-.01-1.61-.49-3.1-1.43-4.47-.5-.73-1.02-1.29-1.58-1.68-.58-.41-1.16-.52-1.73-.32-.62.22-1.1.6-1.43 1.15-.03.04-.09.02-.08-.03.09-.63.36-1.17.8-1.63.18-.17.41-.28.68-.35.06-.01.07-.1.01-.13-1.1-.55-2.18-.88-3.25-.99-.9-.09-1.61-.01-2.14.24-.44.21-.47.17-.09-.13l.52-.39s.04-.06-.01-.09a1.14 1.14 0 0 0-.49-.12c-.42-.02-.84.02-1.27.13-.12.03-.14 0-.06-.1.31-.39.67-.73 1.1-1.03.05-.04.05-.07.01-.12-.03-.04-.09-.04-.16-.02-.47.19-.82.37-1.05.52-.06.04-.08.03-.06-.04.08-.23.26-.54.53-.91.23-.3.37-.56.42-.77q.105-.435.12-.9c0-.07-.03-.07-.09-.02-.01.01-.14.13-.37.36-.6.59-1.59.83-2.43.82-.13 0-.23.03-.29.09q-1.455 1.35-3.36 1.11c-.25-.03-.43-.11-.63-.2-.31-.14-.39-.12-.24.07l.54.66c.05.07.11.13.17.17.07.05.14.08.23.1.72.17 1.39.36 2.02.58.34.12.33.17-.03.14-1.26-.09-2.37-.1-3.49.37-.25.11-.45.28-.59.52-.04.06.01.13.08.12.3-.07.77-.19 1.12-.12.38.09.73.27 1.04.56.13.12.11.15-.06.08-.83-.33-1.9.3-2.49.9-.65.65-1.03 1.37-1.14 2.15-.12.78-.18 1.43-.19 1.94 0 .09.02.1.08.03.43-.54.98-.95 1.64-1.24.03-.01.05-.01.07 0 .02 0 .03.02.03.04 0 .04-.02.08-.04.1-.53.41-.79.94-.8 1.59-.01.38.13.61.42.68.06.01.06.04.01.08-.02.02-.19.14-.51.39-1.09.83-.93 2.4-.73 3.62.03.19.14.79.33 1.82.04.23.09.23.14 0 .19-.89.56-1.68 1.1-2.37.48-.61 1.07-1.25 1.77-1.63.15-.08.17-.05.06.08-2.15 2.73-2.49 6.35-.83 9.42.35.64.75 1.14 1.22 1.51.52.42 1.09.47 1.71.33.24-.05.28.02.12.2-.18.21-.45.41-.8.61-.05.02-.06.09-.02.13.43.38.87.69 1.34.91 1.04.49 2.28.1 3.13-.64h.01s.05.01.05.05c.01.02 0 .03-.01.04-1 1.4-2.26 1.83-3.77 1.29-.36-.13-.75-.37-1.14-.62-.21-.14-.23-.11-.08.1.94 1.23 2.15 2.27 3.77 2.5.08.01.08.03.01.07-.1.04-.28.05-.54.02-.96-.1-1.75-.44-2.37-1.01-.15-.13-.18-.11-.1.07.19.42.46.91.8 1.46.56.9 1.31 1.45 2.35 1.15.07-.02.09 0 .06.07-.14.37-.36.64-.66.8-.15.09-.45.17-.89.24-.06.01-.08.04-.05.1l.5 1.11c.02.05.06.07.11.07 1.35-.01 2.59-.37 3.73-1.07a.03.03 0 0 1 .04 0s.01.01.01.02l-.02.02c-1.07.97-2.26 1.7-3.56 2.2-.06.02-.09.06-.08.13l.16 1.62c.01.06.03.08.08.05.62-.36.94-.54.97-.56.35-.22.76-.39 1.25-.5.31-.07.33-.03.04.13-.36.19-.75.47-1.19.83-.67.55-1.03 1.23-1.08 2.06-.01.15.14.26.28.2l.33-.15q.225-.105.12.12c-.24.52-.23 1.05.03 1.6.03.07.09.12.17.14l.3.07c.07.01.08.04.02.09-.62.51-.91 1.16-.88 1.95.02.26.04.85.06 1.79 0 .07.07.13.14.12.36-.02.69-.02.99-.01.37.01.38.07.05.19-.37.13-.57.45-.58.95 0 .18.17.31.34.26.96-.27 1.89-.32 2.79-.13.2.04.2.07 0 .08q-2.01.105-3.87 1.26c-.02.02-.04.04-.04.07l.02 1.21s.02.02.03.01c.51-.23 1.05-.3 1.6-.2.07 0 .12.04.14.07q.06.075-.03.09c-.17.02-.33.08-.5.18-.67.39-1.05.6-1.13.65-.13.08-.22.21-.24.35l-.33 2.08c-.03.18 0 .19.1.04.19-.3.45-.61.75-.92.22-.23.39-.37.52-.43.4-.18.43-.12.1.17q-.54.48-.81 1.23c-.17.44-.13.84.1 1.2.04.07.02.12-.06.13-.46.07-.76.31-.9.7-.11.3-.17.5-.18.62-.11.8-.21 1.46-.29 1.98-.03.21.02.23.15.07.1-.12.23-.23.4-.34.18-.11.22-.07.13.12-.28.62-.19 1.19.28 1.73.03.04.03.06-.02.06-.88-.01-1.11.67-1.15 1.44-.06 1.22-.03 2.37.09 3.43.05.38.14.39.3.04.11-.24.35-.49.74-.75.04-.03.09.02.07.07-.14.29-.26.66-.36 1.12q-.165.765.27 1.2c.14.15.11.22-.1.2-.45-.05-.66.07-.65.34.03.51.2 1.19.37 1.55.14.32.52.4 1.13.24.1-.02.12 0 .05.09-.28.36-.75 1.19-.57 1.66.25.64.57 1.29.96 1.96.33.56 1.02 1.26 1.72.89.74-.38 1.23-.62 1.47-.71.05-.02.06 0 .04.05-.04.07-.18.27-.44.6-.3.39-.95 1.43-.7 1.98a5.8 5.8 0 0 0 2.09 2.46c.16.11.21.07.16-.11-.13-.52-.11-1.1.08-1.73q.045-.165.09 0c.1.29.19.55.28.76.37.82.95 1.28 1.74 1.39.06.01.06.03.01.05q-.24.15-.36.3c-.17.2-.13.35.1.46.66.31 1.39.55 2.2.71.07.02.14-.01.17-.07l1.32-2.04c.05-.08.09-.07.1.02.01.08-.02.25-.09.52q-.195.735.12 1.53c.16.39.45.64.88.72 1.36.27 2.71.35 4.03.25.27-.03.29-.1.04-.23-.37-.21-.69-.56-.96-1.07-.11-.22-.07-.27.15-.13.37.25.74.46 1.11.62q.51.24 1.17 0c.11-.04.18 0 .19.12q.015.12.09.24c.02.04.08.07.13.07.66-.07 1.27-.24 1.82-.52.38-.19.21-1.08.13-1.42-.02-.07.05-.13.12-.11.78.29 1.85.48 2.52.03a6.5 6.5 0 0 0 1.67-1.72c.09-.13.06-.17-.08-.11a6 6 0 0 0-.68.32c-.3.17-.57.2-.82.08-.25-.13-.5-.26-.67-.42q-.105-.09.03-.06c.38.08.75.02 1.09-.19.21-.13.44-.22.61-.34.05-.03.05-.07 0-.1-.48-.38-.81-.84-.98-1.4-.06-.21-.02-.23.11-.05.54.71 1.53.95 2.25.51.68-.41 1.25-1.58 1.66-2.45.06-.13.03-.16-.1-.1-.66.31-1.29.29-1.89-.08-.16-.1-.15-.15.04-.15.44 0 .96-.07 1.28-.34.04-.04.03-.1-.02-.12-1.12-.52-1.67-1.42-1.64-2.7 0-.17.03-.18.08 0 .22.72.7 1.24 1.45 1.55.66.28 1.46.19 1.72-.54.35-.98.58-2.05.7-3.2.07-.63-.25-1.21-.97-.99-.47.15-.8.45-.99.92q-.18.42-.09-.03c.11-.63.36-1.14.74-1.54.12-.12.09-.32-.05-.41-.2-.12-.41-.19-.63-.19-.05 0-.09-.07-.05-.11.56-.68 1.49-.77 2.16-.22.04.02.09 0 .09-.04.08-1.24.07-2.35 0-3.34q-.045-.465-.42-.63c-.26-.12-.55-.08-.91-.06-.18.01-.2-.04-.07-.16.14-.13.29-.25.46-.35.06-.05.08-.08.08-.1a.326.326 0 0 0-.37-.21c-.37.07-.63.19-.79.35q-.675.705-1.23 1.26c-.17.16-.37.29-.6.37-.04.01-.07 0-.11-.02l-.03-.03c-.03-.04-.02-.08 0-.11.31-.34.49-.54.53-.61.53-.86 1.06-1.65 1.81-2.13.46-.3 1.18 0 1.59.29.03.02.06 0 .06-.03l-.05-2.85c0-.17-.16-.3-.34-.26-.73.17-.82.58-1.01 1.23-.05.16-.07.15-.08-.01-.03-.76.13-1.51.49-2.23.11-.23.29-.37.53-.39.18-.01.19-.07.05-.17-.39-.28-.85-.36-1.38-.23-.54.13-.9.44-1.08.92-.01.03-.02.03-.03.01l-.04-.09v-.02q.18-.63.42-.99c.33-.49.76-.76 1.31-.82.23-.02.24-.08.03-.17-1.06-.49-2.21.03-3.03.81-.62.6-1.05 1-1.27 1.19-.38.33-.43.28-.15-.14.72-1.1 1.46-2.22 2.65-2.78.4-.18.74-.25 1.03-.21.62.08 1.23.27 1.83.55.06.03.14-.01.14-.08.07-1.07-.5-1.78-1.62-1.31-.25.1-.29.05-.1-.15q.3-.345.81-.51c.34-.11.57.07.81.31.06.05.12.07.19.04.05-.02.07-.06.05-.12-.2-.56-.57-.94-1.09-1.12-.07-.02-.07-.04 0-.07.38-.11.73-.11 1.08 0 .06.02.12-.02.12-.09v-.84c-.01-.37-.05-.64-.14-.79-.18-.29-.48-.39-.9-.28-.39.1-.71.26-.95.48-.15.14-.18.12-.1-.07.2-.44.49-.78.86-1.03.13-.08.14-.18.03-.29-.4-.4-.86-.64-1.39-.72-1.89-.29-3.39.34-4.51 1.9-.1.12-.14.19-.15.2-.19.31-.23.28-.11-.06.71-2.04 2.89-3 4.92-2.84q.705.06 1.92.48c.46.16.79.33 1.01.5.05.03.09.04.14.01s.08-.09.07-.17c0-.05 0-.1.01-.15l.69-2.93q.06-.225-.12-.06c-.79.78-1.71 1.04-2.74.78-.22-.06-.22-.09 0-.1.57-.03 1.16-.29 1.47-.74.14-.21.22-.46.22-.75 0-.23-.08-.39-.25-.45-.68-.27-1.32-.19-1.94.24-.11.08-.13.06-.06-.05.53-.85 1.86-1.34 2.77-1.36.26 0 .49.08.7.2.12.07.2.03.23-.11.28-1.38.6-2.7.97-3.94.1-.33.13-.56.1-.69-.07-.3-.27-.47-.59-.53-.41-.08-.78.09-1.11.52-.1.13-.19.3-.27.5h-.06s-.03-.02-.02-.04c.24-1.24.96-1.95 2.14-2.14.05-.01.06-.03.03-.07-.96-1.44-2.17-2.32-3.62-2.64-.33-.07-.33-.11.01-.12 1.28-.04 2.47.35 3.57 1.18.06.05.15 0 .16-.08 0-.34 0-.52.01-.54.1-.47.15-.89.15-1.25 0-.28-.11-.35-.34-.21l-.31.19s-.09.02-.11-.04c-.03-.1-.06-.26-.09-.51-.04-.31-.24-.56-.49-.74-.22-.16-.48-.27-.72-.32-.16-.04-.17-.08 0-.13.63-.21 1.25-.2 1.84.01.04.01.09.02.13.04.12.05.26-.03.29-.16v-.05l.53-2.18c0-.02-.02-.04-.05-.03-.23.1-.49.27-.78.22-.6-.11-1.1-.43-1.63-.8-.15-.11-.14-.14.05-.1.49.12.97.21 1.43.1.46-.12.88-.4 1.27-.83.12-.13.09-.18-.08-.15-.34.06-.6.09-.79.08-.2 0-.23-.07-.06-.19.53-.39.96-.76 1.21-1.39.04-.11.01-.14-.09-.07-.59.35-1.23.61-1.87.42s-1.18-.53-1.61-1.02c-.16-.18-.13-.22.09-.11.26.14.4.21.41.21.73.35 1.49.35 2.3-.01 1.43-.63 2.27-2.45 2.62-3.97.29-1.21.5-2.49.45-3.72a.22.22 0 0 0-.28-.2c-.76.21-.9.69-1.24 1.31-.04.08-.06.07-.06-.02.03-.78.3-1.47.84-2.06.12-.13.3-.18.43-.25.08-.04.1-.15.05-.22-.62-.73-1.5-.97-2.4-.56-.38.18-.72.4-1.01.67-.2.19-.23.17-.08-.06.83-1.28 2.44-2.24 3.88-1.17.03.02.07.01.07-.03.04-.7.06-1.3.06-1.82 0-.76-.08-1.35-.24-1.79-.24-.65-.57-1.23-.99-1.73-.73-.85-1.66-1.27-2.81-1.25-.1 0-.11-.02-.01-.05 1.08-.36 2.11-.21 3.1.44.28.19.54.57.79 1.13.01.02.02.03.04.03.01 0 .02 0 .03-.02s.02-.03.02-.06c-.06-.66-.13-1.31-.22-1.97-.04-.33-.17-.58-.38-.73-.23-.16-.35-.25-.36-.25-.7-.61-1.13-.95-1.29-1.03-1.17-.59-1.92-.79-2.48-1.56-.18-.25-.13-.3.13-.15.52.28.95.46 1.54.6.71.16 1.25.32 1.77.78.19.18.24.15.14-.1-.41-.96-1.01-1.71-1.82-2.27-.19-.13-.18-.17.05-.13.66.13 1.27.33 1.83.59.26.12.32.05.18-.19-.06-.11-.17-.27-.33-.51s-.1-.33.19-.26Zm-14.14 27.89c1.07-.73 2.19-1.58 3.37-2.55.97-.8 1.8-1.65 2.48-2.57.28-.37.34-.34.17.1-.78 2.13-2.02 3.96-3.71 5.49-.83.75-1.69 1.42-2.59 2.03-2.52 1.67-4.06 2.7-4.63 3.07-.87.58-1.43 1-1.65 1.27-.12.15-.2.23-.23.25-.06.05-.09.03-.06-.04.12-.36.23-.62.33-.8 1.09-1.84 2.52-3.4 4.28-4.69.63-.46 1.38-.98 2.24-1.56m-4.39 26.41c1.23.08 2.43-.12 3.51-.66.3-.15.51-.26.64-.31.17-.08.19-.05.07.08-1.85 1.99-4.74 1.96-7.29 1.77-.78-.05-1.37-.05-1.76 0-1.45.24-2.88.91-4.03 1.67-.04.03-.1 0-.09-.06 0-.05.02-.09.06-.14.87-.97 1.94-1.76 3.23-2.37.74-.35 1.43-.54 2.09-.55 1.06-.03 2.52.48 3.57.56Zm5.11-11.15c-.67.75-1.44 1.37-2.3 1.84-.54.3-1.12.54-1.74.73l-.11.03c-.56.17-1.13.31-1.7.44-1.42.34-2.84.59-4.08.93q-.36.09-.06-.12c1.27-.92 2.61-1.55 4.1-1.95.17-.06.33-.1.5-.14 1.15-.28 2.39-.55 3.4-.93.8-.31 1.4-.59 1.81-.84.07-.04.11-.06.12-.07.12-.03.13-.01.06.08m-10.79-2.32a9.4 9.4 0 0 1-3.18-.21c-.16-.04-.16-.07.01-.09.68-.1 1.32-.2 1.92-.31 2.84-.5 5.38-1.72 7.62-3.64q1.98-1.695 3.6-3c.37-.3.78-.56 1.17-.84.11-.08.24-.14.38-.19.05-.01.06 0 .02.03-1.53 1.32-2.75 2.99-4.01 4.41q-2.985 3.375-7.53 3.84m-3.46-9.65c2.34-1.09 4.3-2.76 6.05-4.65.22-.25.81-.86 1.75-1.83 1.48-1.51 3.25-2.14 5.33-1.89.14.01.15.05.02.11-2.34 1.09-4.3 2.76-6.05 4.65-.22.25-.81.86-1.75 1.83-1.48 1.51-3.25 2.14-5.33 1.89-.14-.01-.15-.05-.02-.11m-1.46 19.03c1.09-.79 2.48-1.3 3.85-1.14.74.08 1.55.59 2.19.8q1.44.48 2.91 0c.03-.01.04 0 .06.02.01.02.01.03 0 .05 0 0 0 .01-.01.01-.37.25-.69.41-.93.46-.86.21-1.73.21-2.59.02-.6-.13-1.28-.3-2.03-.5q-.45-.12-1.14-.09c-.6.03-1.32.19-2.18.48-.04.01-.08.01-.11-.02a.1.1 0 0 1-.03-.04c-.01-.02-.01-.04.01-.05m14.43 18.35s-.06.07-.1.09c-1.06.6-2.11.42-3.26.11-.37-.09-.63-.14-.8-.15-.58-.03-1.12.12-1.71.31-.4.13-.43.07-.1-.2q.42-.33 1.05-.6c.68-.28 1.34-.3 1.98-.04.56.23.96.37 1.2.45.5.15 1.08.12 1.74-.1.04-.01.07.03.05.06zm.02-4.02c-.84.71-1.93.86-3 .85-1.56-.01-2.87-.64-4.32-.24-.75.21-1.43.49-2.05.83-.05.02-.11-.01-.11-.06a.2.2 0 0 1 .05-.1c1.16-1.05 3.2-2.23 4.78-1.65.58.22 1.05.38 1.42.48 1.05.29 2.11.21 3.17-.22.26-.11.28-.07.06.11m.63-5.01c-.47.59-1.08 1.04-1.81 1.34-.99.41-2.09.62-3.3.64-1.11.02-2 .03-2.68.03-1.29 0-2.87 1.06-3.8 1.48-2.05.92-3.96.76-5.74-.5a.3.3 0 0 1-.09-.12q-.03-.09.06-.06c.34.13.55.2.64.23.31.08.76.14 1.34.18 1.14.07 2.19-.19 3.16-.79.4-.25 1.14-.73 2.25-1.46.52-.33 1.15-.54 1.91-.62.36-.04.98.03 1.85.21 2.2.46 4.16.63 6.12-.66.24-.16.27-.12.09.1m6.44-27.12c-.46 1.54-1.3 2.97-2.5 4.28-1.05 1.14-2.13 2.09-3.25 2.84-1.41.95-2.85 1.46-4.48 1.5-.22.01-.23-.04-.04-.15q.885-.48 1.77-1.14c1.77-1.33 2.98-2.24 3.61-2.72 1.72-1.3 3.19-2.68 4.41-4.13.16-.19.24-.39.38-.54.12-.12.15-.1.1.06m.41-38.09c-.93-.1-1.98-.32-3.16-.66-.47-.14-.82-.26-1.03-.38a.2.2 0 0 1-.1-.11q-.195-.51-.78-1.95c-.73-1.78 0-4.45.87-6.06 1.04-1.93 2.67-1.62 4.07-.4.51.44.97.98 1.38 1.6 1.19 1.81 1.31 3.7.37 5.67q-.48 1.005-1.32 2.13c-.09.12-.19.17-.29.16Zm17.69 90.24h-.02c-.01 0-.02 0-.02-.01h.02c.01 0 .02 0 .02.01"/></svg>